<svg width="51" height="50" viewBox="0 0 51 50" fill="none" xmlns="http://www.w3.org/2000/svg">
    <path d="M37.9999 20.833H35.3749C34.5955 17.8143 32.9849 15.0746 30.7263 12.9255C28.4676 10.7763 25.6514 9.30382 22.5977 8.67525C19.5439 8.04668 16.3751 8.28726 13.4513 9.36966C10.5274 10.4521 7.96582 12.3329 6.05751 14.7984C4.14921 17.2639 2.97072 20.2153 2.65596 23.3171C2.34121 26.4189 2.9028 29.5468 4.27694 32.3454C5.65107 35.144 7.78265 37.5011 10.4294 39.1488C13.0763 40.7964 16.1322 41.6687 19.2499 41.6663H37.9999C40.7626 41.6663 43.4121 40.5689 45.3656 38.6154C47.3191 36.6619 48.4166 34.0123 48.4166 31.2497C48.4166 28.487 47.3191 25.8375 45.3656 23.884C43.4121 21.9305 40.7626 20.833 37.9999 20.833Z" stroke="black" stroke-width="3" stroke-linecap="round" stroke-linejoin="round"/>
    </svg>
    