<svg width="341" height="179" viewBox="0 0 341 179" fill="none" xmlns="http://www.w3.org/2000/svg">
    <path d="M10.9165 35.9167H8.83317C7.7281 35.9167 6.66829 35.4777 5.88689 34.6963C5.10549 33.9149 4.6665 32.8551 4.6665 31.75V10.9167C4.6665 9.8116 5.10549 8.75179 5.88689 7.97039C6.66829 7.18899 7.7281 6.75 8.83317 6.75H42.1665C43.2716 6.75 44.3314 7.18899 45.1128 7.97039C45.8942 8.75179 46.3332 9.8116 46.3332 10.9167V31.75C46.3332 32.8551 45.8942 33.9149 45.1128 34.6963C44.3314 35.4777 43.2716 35.9167 42.1665 35.9167H40.0832" stroke="black" stroke-width="3" stroke-linecap="round" stroke-linejoin="round"/>
    <path d="M25.5002 31.75L35.9168 44.25H15.0835L25.5002 31.75Z" stroke="#1A56DB" stroke-width="3" stroke-linecap="round" stroke-linejoin="round"/>
    <path d="M5.54 72.59V93.5H2.81V72.59H5.54ZM23.0628 72.59V74.81H17.3628V93.5H14.6328V74.81H8.90281V72.59H23.0628ZM33.4013 83.03C33.4013 80.99 33.8613 79.16 34.7813 77.54C35.7013 75.9 36.9513 74.62 38.5313 73.7C40.1313 72.78 41.9013 72.32 43.8413 72.32C46.1213 72.32 48.1113 72.87 49.8113 73.97C51.5113 75.07 52.7513 76.63 53.5313 78.65H50.2613C49.6813 77.39 48.8413 76.42 47.7413 75.74C46.6613 75.06 45.3613 74.72 43.8413 74.72C42.3813 74.72 41.0713 75.06 39.9113 75.74C38.7513 76.42 37.8413 77.39 37.1813 78.65C36.5213 79.89 36.1913 81.35 36.1913 83.03C36.1913 84.69 36.5213 86.15 37.1813 87.41C37.8413 88.65 38.7513 89.61 39.9113 90.29C41.0713 90.97 42.3813 91.31 43.8413 91.31C45.3613 91.31 46.6613 90.98 47.7413 90.32C48.8413 89.64 49.6813 88.67 50.2613 87.41H53.5313C52.7513 89.41 51.5113 90.96 49.8113 92.06C48.1113 93.14 46.1213 93.68 43.8413 93.68C41.9013 93.68 40.1313 93.23 38.5313 92.33C36.9513 91.41 35.7013 90.14 34.7813 88.52C33.8613 86.9 33.4013 85.07 33.4013 83.03ZM64.7652 93.77C63.2252 93.77 61.8252 93.42 60.5652 92.72C59.3252 92.02 58.3452 91.03 57.6252 89.75C56.9252 88.45 56.5752 86.95 56.5752 85.25C56.5752 83.57 56.9352 82.09 57.6552 80.81C58.3952 79.51 59.3952 78.52 60.6552 77.84C61.9152 77.14 63.3252 76.79 64.8852 76.79C66.4452 76.79 67.8552 77.14 69.1152 77.84C70.3752 78.52 71.3652 79.5 72.0852 80.78C72.8252 82.06 73.1952 83.55 73.1952 85.25C73.1952 86.95 72.8152 88.45 72.0552 89.75C71.3152 91.03 70.3052 92.02 69.0252 92.72C67.7452 93.42 66.3252 93.77 64.7652 93.77ZM64.7652 91.37C65.7452 91.37 66.6652 91.14 67.5252 90.68C68.3852 90.22 69.0752 89.53 69.5952 88.61C70.1352 87.69 70.4052 86.57 70.4052 85.25C70.4052 83.93 70.1452 82.81 69.6252 81.89C69.1052 80.97 68.4252 80.29 67.5852 79.85C66.7452 79.39 65.8352 79.16 64.8552 79.16C63.8552 79.16 62.9352 79.39 62.0952 79.85C61.2752 80.29 60.6152 80.97 60.1152 81.89C59.6152 82.81 59.3652 83.93 59.3652 85.25C59.3652 86.59 59.6052 87.72 60.0852 88.64C60.5852 89.56 61.2452 90.25 62.0652 90.71C62.8852 91.15 63.7852 91.37 64.7652 91.37ZM84.7946 76.76C86.7946 76.76 88.4146 77.37 89.6546 78.59C90.8946 79.79 91.5146 81.53 91.5146 83.81V93.5H88.8146V84.2C88.8146 82.56 88.4046 81.31 87.5846 80.45C86.7646 79.57 85.6446 79.13 84.2246 79.13C82.7846 79.13 81.6346 79.58 80.7746 80.48C79.9346 81.38 79.5146 82.69 79.5146 84.41V93.5H76.7846V77.06H79.5146V79.4C80.0546 78.56 80.7846 77.91 81.7046 77.45C82.6446 76.99 83.6746 76.76 84.7946 76.76ZM101.794 93.77C100.534 93.77 99.4041 93.56 98.4041 93.14C97.4041 92.7 96.6141 92.1 96.0341 91.34C95.4541 90.56 95.1341 89.67 95.0741 88.67H97.8941C97.9741 89.49 98.3541 90.16 99.0341 90.68C99.7341 91.2 100.644 91.46 101.764 91.46C102.804 91.46 103.624 91.23 104.224 90.77C104.824 90.31 105.124 89.73 105.124 89.03C105.124 88.31 104.804 87.78 104.164 87.44C103.524 87.08 102.534 86.73 101.194 86.39C99.9741 86.07 98.9741 85.75 98.1941 85.43C97.4341 85.09 96.7741 84.6 96.2141 83.96C95.6741 83.3 95.4041 82.44 95.4041 81.38C95.4041 80.54 95.6541 79.77 96.1541 79.07C96.6541 78.37 97.3641 77.82 98.2841 77.42C99.2041 77 100.254 76.79 101.434 76.79C103.254 76.79 104.724 77.25 105.844 78.17C106.964 79.09 107.564 80.35 107.644 81.95H104.914C104.854 81.09 104.504 80.4 103.864 79.88C103.244 79.36 102.404 79.1 101.344 79.1C100.364 79.1 99.5841 79.31 99.0041 79.73C98.4241 80.15 98.1341 80.7 98.1341 81.38C98.1341 81.92 98.3041 82.37 98.6441 82.73C99.0041 83.07 99.4441 83.35 99.9641 83.57C100.504 83.77 101.244 84 102.184 84.26C103.364 84.58 104.324 84.9 105.064 85.22C105.804 85.52 106.434 85.98 106.954 86.6C107.494 87.22 107.774 88.03 107.794 89.03C107.794 89.93 107.544 90.74 107.044 91.46C106.544 92.18 105.834 92.75 104.914 93.17C104.014 93.57 102.974 93.77 101.794 93.77ZM126.228 77.06V93.5H123.498V91.07C122.978 91.91 122.248 92.57 121.308 93.05C120.388 93.51 119.368 93.74 118.248 93.74C116.968 93.74 115.818 93.48 114.798 92.96C113.778 92.42 112.968 91.62 112.368 90.56C111.788 89.5 111.498 88.21 111.498 86.69V77.06H114.198V86.33C114.198 87.95 114.608 89.2 115.428 90.08C116.248 90.94 117.368 91.37 118.788 91.37C120.248 91.37 121.398 90.92 122.238 90.02C123.078 89.12 123.498 87.81 123.498 86.09V77.06H126.228ZM133.567 71.3V93.5H130.837V71.3H133.567ZM141.55 79.31V89C141.55 89.8 141.72 90.37 142.06 90.71C142.4 91.03 142.99 91.19 143.83 91.19H145.84V93.5H143.38C141.86 93.5 140.72 93.15 139.96 92.45C139.2 91.75 138.82 90.6 138.82 89V79.31H136.69V77.06H138.82V72.92H141.55V77.06H145.84V79.31H141.55ZM150.558 74.39C150.038 74.39 149.598 74.21 149.238 73.85C148.878 73.49 148.698 73.05 148.698 72.53C148.698 72.01 148.878 71.57 149.238 71.21C149.598 70.85 150.038 70.67 150.558 70.67C151.058 70.67 151.478 70.85 151.818 71.21C152.178 71.57 152.358 72.01 152.358 72.53C152.358 73.05 152.178 73.49 151.818 73.85C151.478 74.21 151.058 74.39 150.558 74.39ZM151.878 77.06V93.5H149.148V77.06H151.878ZM164.541 76.76C166.541 76.76 168.161 77.37 169.401 78.59C170.641 79.79 171.261 81.53 171.261 83.81V93.5H168.561V84.2C168.561 82.56 168.151 81.31 167.331 80.45C166.511 79.57 165.391 79.13 163.971 79.13C162.531 79.13 161.381 79.58 160.521 80.48C159.681 81.38 159.261 82.69 159.261 84.41V93.5H156.531V77.06H159.261V79.4C159.801 78.56 160.531 77.91 161.451 77.45C162.391 76.99 163.421 76.76 164.541 76.76ZM182.5 76.79C183.92 76.79 185.16 77.1 186.22 77.72C187.3 78.34 188.1 79.12 188.62 80.06V77.06H191.38V93.86C191.38 95.36 191.06 96.69 190.42 97.85C189.78 99.03 188.86 99.95 187.66 100.61C186.48 101.27 185.1 101.6 183.52 101.6C181.36 101.6 179.56 101.09 178.12 100.07C176.68 99.05 175.83 97.66 175.57 95.9H178.27C178.57 96.9 179.19 97.7 180.13 98.3C181.07 98.92 182.2 99.23 183.52 99.23C185.02 99.23 186.24 98.76 187.18 97.82C188.14 96.88 188.62 95.56 188.62 93.86V90.41C188.08 91.37 187.28 92.17 186.22 92.81C185.16 93.45 183.92 93.77 182.5 93.77C181.04 93.77 179.71 93.41 178.51 92.69C177.33 91.97 176.4 90.96 175.72 89.66C175.04 88.36 174.7 86.88 174.7 85.22C174.7 83.54 175.04 82.07 175.72 80.81C176.4 79.53 177.33 78.54 178.51 77.84C179.71 77.14 181.04 76.79 182.5 76.79ZM188.62 85.25C188.62 84.01 188.37 82.93 187.87 82.01C187.37 81.09 186.69 80.39 185.83 79.91C184.99 79.41 184.06 79.16 183.04 79.16C182.02 79.16 181.09 79.4 180.25 79.88C179.41 80.36 178.74 81.06 178.24 81.98C177.74 82.9 177.49 83.98 177.49 85.22C177.49 86.48 177.74 87.58 178.24 88.52C178.74 89.44 179.41 90.15 180.25 90.65C181.09 91.13 182.02 91.37 183.04 91.37C184.06 91.37 184.99 91.13 185.83 90.65C186.69 90.15 187.37 89.44 187.87 88.52C188.37 87.58 188.62 86.49 188.62 85.25Z" fill="black"/>
    <path d="M4.672 130.598C4.028 130.598 3.44933 130.486 2.936 130.262C2.432 130.029 2.03533 129.711 1.746 129.31C1.45667 128.899 1.30733 128.428 1.298 127.896H2.656C2.70267 128.353 2.88933 128.741 3.216 129.058C3.552 129.366 4.03733 129.52 4.672 129.52C5.27867 129.52 5.75467 129.371 6.1 129.072C6.45467 128.764 6.632 128.372 6.632 127.896C6.632 127.523 6.52933 127.219 6.324 126.986C6.11867 126.753 5.862 126.575 5.554 126.454C5.246 126.333 4.83067 126.202 4.308 126.062C3.664 125.894 3.146 125.726 2.754 125.558C2.37133 125.39 2.04 125.129 1.76 124.774C1.48933 124.41 1.354 123.925 1.354 123.318C1.354 122.786 1.48933 122.315 1.76 121.904C2.03067 121.493 2.40867 121.176 2.894 120.952C3.38867 120.728 3.95333 120.616 4.588 120.616C5.50267 120.616 6.24933 120.845 6.828 121.302C7.416 121.759 7.74733 122.366 7.822 123.122H6.422C6.37533 122.749 6.17933 122.422 5.834 122.142C5.48867 121.853 5.03133 121.708 4.462 121.708C3.93 121.708 3.496 121.848 3.16 122.128C2.824 122.399 2.656 122.781 2.656 123.276C2.656 123.631 2.754 123.92 2.95 124.144C3.15533 124.368 3.40267 124.541 3.692 124.662C3.99067 124.774 4.406 124.905 4.938 125.054C5.582 125.231 6.1 125.409 6.492 125.586C6.884 125.754 7.22 126.02 7.5 126.384C7.78 126.739 7.92 127.224 7.92 127.84C7.92 128.316 7.794 128.764 7.542 129.184C7.29 129.604 6.91667 129.945 6.422 130.206C5.92733 130.467 5.344 130.598 4.672 130.598ZM11.3488 123.878V128.4C11.3488 128.773 11.4281 129.039 11.5868 129.198C11.7455 129.347 12.0208 129.422 12.4128 129.422H13.3508V130.5H12.2028C11.4935 130.5 10.9615 130.337 10.6068 130.01C10.2521 129.683 10.0748 129.147 10.0748 128.4V123.878H9.0808V122.828H10.0748V120.896H11.3488V122.828H13.3508V123.878H11.3488ZM16.1684 124.074C16.3924 123.635 16.7097 123.295 17.1204 123.052C17.5404 122.809 18.0491 122.688 18.6464 122.688V124.004H18.3104C16.8824 124.004 16.1684 124.779 16.1684 126.328V130.5H14.8944V122.828H16.1684V124.074ZM19.6411 126.636C19.6411 125.852 19.7997 125.166 20.1171 124.578C20.4344 123.981 20.8684 123.519 21.4191 123.192C21.9791 122.865 22.5997 122.702 23.2811 122.702C23.9531 122.702 24.5364 122.847 25.0311 123.136C25.5257 123.425 25.8944 123.789 26.1371 124.228V122.828H27.4251V130.5H26.1371V129.072C25.8851 129.52 25.5071 129.893 25.0031 130.192C24.5084 130.481 23.9297 130.626 23.2671 130.626C22.5857 130.626 21.9697 130.458 21.4191 130.122C20.8684 129.786 20.4344 129.315 20.1171 128.708C19.7997 128.101 19.6411 127.411 19.6411 126.636ZM26.1371 126.65C26.1371 126.071 26.0204 125.567 25.7871 125.138C25.5537 124.709 25.2364 124.382 24.8351 124.158C24.4431 123.925 24.0091 123.808 23.5331 123.808C23.0571 123.808 22.6231 123.92 22.2311 124.144C21.8391 124.368 21.5264 124.695 21.2931 125.124C21.0597 125.553 20.9431 126.057 20.9431 126.636C20.9431 127.224 21.0597 127.737 21.2931 128.176C21.5264 128.605 21.8391 128.937 22.2311 129.17C22.6231 129.394 23.0571 129.506 23.5331 129.506C24.0091 129.506 24.4431 129.394 24.8351 129.17C25.2364 128.937 25.5537 128.605 25.7871 128.176C26.0204 127.737 26.1371 127.229 26.1371 126.65ZM31.132 123.878V128.4C31.132 128.773 31.2113 129.039 31.37 129.198C31.5287 129.347 31.804 129.422 32.196 129.422H33.134V130.5H31.986C31.2767 130.5 30.7447 130.337 30.39 130.01C30.0353 129.683 29.858 129.147 29.858 128.4V123.878H28.864V122.828H29.858V120.896H31.132V122.828H33.134V123.878H31.132ZM41.6776 126.37C41.6776 126.613 41.6636 126.869 41.6356 127.14H35.5036C35.5503 127.896 35.8069 128.489 36.2736 128.918C36.7496 129.338 37.3236 129.548 37.9956 129.548C38.5463 129.548 39.0036 129.422 39.3676 129.17C39.7409 128.909 40.0023 128.563 40.1516 128.134H41.5236C41.3183 128.871 40.9076 129.473 40.2916 129.94C39.6756 130.397 38.9103 130.626 37.9956 130.626C37.2676 130.626 36.6143 130.463 36.0356 130.136C35.4663 129.809 35.0183 129.347 34.6916 128.75C34.3649 128.143 34.2016 127.443 34.2016 126.65C34.2016 125.857 34.3603 125.161 34.6776 124.564C34.9949 123.967 35.4383 123.509 36.0076 123.192C36.5863 122.865 37.2489 122.702 37.9956 122.702C38.7236 122.702 39.3676 122.861 39.9276 123.178C40.4876 123.495 40.9169 123.934 41.2156 124.494C41.5236 125.045 41.6776 125.67 41.6776 126.37ZM40.3616 126.104C40.3616 125.619 40.2543 125.203 40.0396 124.858C39.8249 124.503 39.5309 124.237 39.1576 124.06C38.7936 123.873 38.3876 123.78 37.9396 123.78C37.2956 123.78 36.7449 123.985 36.2876 124.396C35.8396 124.807 35.5829 125.376 35.5176 126.104H40.3616ZM46.5233 122.702C47.1859 122.702 47.7646 122.847 48.2593 123.136C48.7633 123.425 49.1366 123.789 49.3793 124.228V122.828H50.6673V130.668C50.6673 131.368 50.5179 131.989 50.2193 132.53C49.9206 133.081 49.4913 133.51 48.9313 133.818C48.3806 134.126 47.7366 134.28 46.9993 134.28C45.9913 134.28 45.1513 134.042 44.4793 133.566C43.8073 133.09 43.4106 132.441 43.2893 131.62H44.5493C44.6893 132.087 44.9786 132.46 45.4173 132.74C45.8559 133.029 46.3833 133.174 46.9993 133.174C47.6993 133.174 48.2686 132.955 48.7073 132.516C49.1553 132.077 49.3793 131.461 49.3793 130.668V129.058C49.1273 129.506 48.7539 129.879 48.2593 130.178C47.7646 130.477 47.1859 130.626 46.5233 130.626C45.8419 130.626 45.2213 130.458 44.6613 130.122C44.1106 129.786 43.6766 129.315 43.3593 128.708C43.0419 128.101 42.8833 127.411 42.8833 126.636C42.8833 125.852 43.0419 125.166 43.3593 124.578C43.6766 123.981 44.1106 123.519 44.6613 123.192C45.2213 122.865 45.8419 122.702 46.5233 122.702ZM49.3793 126.65C49.3793 126.071 49.2626 125.567 49.0293 125.138C48.7959 124.709 48.4786 124.382 48.0773 124.158C47.6853 123.925 47.2513 123.808 46.7753 123.808C46.2993 123.808 45.8653 123.92 45.4733 124.144C45.0813 124.368 44.7686 124.695 44.5353 125.124C44.3019 125.553 44.1853 126.057 44.1853 126.636C44.1853 127.224 44.3019 127.737 44.5353 128.176C44.7686 128.605 45.0813 128.937 45.4733 129.17C45.8653 129.394 46.2993 129.506 46.7753 129.506C47.2513 129.506 47.6853 129.394 48.0773 129.17C48.4786 128.937 48.7959 128.605 49.0293 128.176C49.2626 127.737 49.3793 127.229 49.3793 126.65ZM53.4782 121.582C53.2355 121.582 53.0302 121.498 52.8622 121.33C52.6942 121.162 52.6102 120.957 52.6102 120.714C52.6102 120.471 52.6942 120.266 52.8622 120.098C53.0302 119.93 53.2355 119.846 53.4782 119.846C53.7115 119.846 53.9075 119.93 54.0662 120.098C54.2342 120.266 54.3182 120.471 54.3182 120.714C54.3182 120.957 54.2342 121.162 54.0662 121.33C53.9075 121.498 53.7115 121.582 53.4782 121.582ZM54.0942 122.828V130.5H52.8202V122.828H54.0942ZM55.7895 126.65C55.7895 125.857 55.9482 125.166 56.2655 124.578C56.5828 123.981 57.0215 123.519 57.5815 123.192C58.1508 122.865 58.7995 122.702 59.5275 122.702C60.4702 122.702 61.2448 122.931 61.8515 123.388C62.4675 123.845 62.8735 124.48 63.0695 125.292H61.6975C61.5668 124.825 61.3102 124.457 60.9275 124.186C60.5542 123.915 60.0875 123.78 59.5275 123.78C58.7995 123.78 58.2115 124.032 57.7635 124.536C57.3155 125.031 57.0915 125.735 57.0915 126.65C57.0915 127.574 57.3155 128.288 57.7635 128.792C58.2115 129.296 58.7995 129.548 59.5275 129.548C60.0875 129.548 60.5542 129.417 60.9275 129.156C61.3008 128.895 61.5575 128.521 61.6975 128.036H63.0695C62.8642 128.82 62.4535 129.45 61.8375 129.926C61.2215 130.393 60.4515 130.626 59.5275 130.626C58.7995 130.626 58.1508 130.463 57.5815 130.136C57.0215 129.809 56.5828 129.347 56.2655 128.75C55.9482 128.153 55.7895 127.453 55.7895 126.65ZM69.7758 120.742V130.5H68.5018V120.742H69.7758ZM77.9531 120.742V121.778H75.2931V130.5H74.0191V121.778H71.3451V120.742H77.9531ZM90.6458 123.57C90.3751 123.001 89.9831 122.562 89.4698 122.254C88.9564 121.937 88.3591 121.778 87.6778 121.778C86.9964 121.778 86.3804 121.937 85.8298 122.254C85.2884 122.562 84.8591 123.01 84.5418 123.598C84.2338 124.177 84.0798 124.849 84.0798 125.614C84.0798 126.379 84.2338 127.051 84.5418 127.63C84.8591 128.209 85.2884 128.657 85.8298 128.974C86.3804 129.282 86.9964 129.436 87.6778 129.436C88.6298 129.436 89.4138 129.151 90.0298 128.582C90.6458 128.013 91.0051 127.243 91.1078 126.272H87.2158V125.236H92.4658V126.216C92.3911 127.019 92.1391 127.756 91.7098 128.428C91.2804 129.091 90.7158 129.618 90.0158 130.01C89.3158 130.393 88.5364 130.584 87.6778 130.584C86.7724 130.584 85.9464 130.374 85.1998 129.954C84.4531 129.525 83.8604 128.932 83.4218 128.176C82.9924 127.42 82.7778 126.566 82.7778 125.614C82.7778 124.662 82.9924 123.808 83.4218 123.052C83.8604 122.287 84.4531 121.694 85.1998 121.274C85.9464 120.845 86.7724 120.63 87.6778 120.63C88.7138 120.63 89.6284 120.887 90.4218 121.4C91.2244 121.913 91.8078 122.637 92.1718 123.57H90.6458ZM100.954 122.828V130.5H99.6803V129.366C99.4376 129.758 99.0969 130.066 98.6583 130.29C98.2289 130.505 97.7529 130.612 97.2303 130.612C96.6329 130.612 96.0963 130.491 95.6203 130.248C95.1443 129.996 94.7663 129.623 94.4863 129.128C94.2156 128.633 94.0803 128.031 94.0803 127.322V122.828H95.3403V127.154C95.3403 127.91 95.5316 128.493 95.9143 128.904C96.2969 129.305 96.8196 129.506 97.4823 129.506C98.1636 129.506 98.7003 129.296 99.0923 128.876C99.4843 128.456 99.6803 127.845 99.6803 127.042V122.828H100.954ZM103.763 121.582C103.521 121.582 103.315 121.498 103.147 121.33C102.979 121.162 102.895 120.957 102.895 120.714C102.895 120.471 102.979 120.266 103.147 120.098C103.315 119.93 103.521 119.846 103.763 119.846C103.997 119.846 104.193 119.93 104.351 120.098C104.519 120.266 104.603 120.471 104.603 120.714C104.603 120.957 104.519 121.162 104.351 121.33C104.193 121.498 103.997 121.582 103.763 121.582ZM104.379 122.828V130.5H103.105V122.828H104.379ZM106.075 126.636C106.075 125.852 106.233 125.166 106.551 124.578C106.868 123.981 107.302 123.519 107.853 123.192C108.413 122.865 109.038 122.702 109.729 122.702C110.326 122.702 110.881 122.842 111.395 123.122C111.908 123.393 112.3 123.752 112.571 124.2V120.14H113.859V130.5H112.571V129.058C112.319 129.515 111.945 129.893 111.451 130.192C110.956 130.481 110.377 130.626 109.715 130.626C109.033 130.626 108.413 130.458 107.853 130.122C107.302 129.786 106.868 129.315 106.551 128.708C106.233 128.101 106.075 127.411 106.075 126.636ZM112.571 126.65C112.571 126.071 112.454 125.567 112.221 125.138C111.987 124.709 111.67 124.382 111.269 124.158C110.877 123.925 110.443 123.808 109.967 123.808C109.491 123.808 109.057 123.92 108.665 124.144C108.273 124.368 107.96 124.695 107.727 125.124C107.493 125.553 107.377 126.057 107.377 126.636C107.377 127.224 107.493 127.737 107.727 128.176C107.96 128.605 108.273 128.937 108.665 129.17C109.057 129.394 109.491 129.506 109.967 129.506C110.443 129.506 110.877 129.394 111.269 129.17C111.67 128.937 111.987 128.605 112.221 128.176C112.454 127.737 112.571 127.229 112.571 126.65ZM115.536 126.636C115.536 125.852 115.694 125.166 116.012 124.578C116.329 123.981 116.763 123.519 117.314 123.192C117.874 122.865 118.494 122.702 119.176 122.702C119.848 122.702 120.431 122.847 120.926 123.136C121.42 123.425 121.789 123.789 122.032 124.228V122.828H123.32V130.5H122.032V129.072C121.78 129.52 121.402 129.893 120.898 130.192C120.403 130.481 119.824 130.626 119.162 130.626C118.48 130.626 117.864 130.458 117.314 130.122C116.763 129.786 116.329 129.315 116.012 128.708C115.694 128.101 115.536 127.411 115.536 126.636ZM122.032 126.65C122.032 126.071 121.915 125.567 121.682 125.138C121.448 124.709 121.131 124.382 120.73 124.158C120.338 123.925 119.904 123.808 119.428 123.808C118.952 123.808 118.518 123.92 118.126 124.144C117.734 124.368 117.421 124.695 117.188 125.124C116.954 125.553 116.838 126.057 116.838 126.636C116.838 127.224 116.954 127.737 117.188 128.176C117.421 128.605 117.734 128.937 118.126 129.17C118.518 129.394 118.952 129.506 119.428 129.506C119.904 129.506 120.338 129.394 120.73 129.17C121.131 128.937 121.448 128.605 121.682 128.176C121.915 127.737 122.032 127.229 122.032 126.65ZM129.211 122.688C130.144 122.688 130.9 122.973 131.479 123.542C132.057 124.102 132.347 124.914 132.347 125.978V130.5H131.087V126.16C131.087 125.395 130.895 124.811 130.513 124.41C130.13 123.999 129.607 123.794 128.945 123.794C128.273 123.794 127.736 124.004 127.335 124.424C126.943 124.844 126.747 125.455 126.747 126.258V130.5H125.473V122.828H126.747V123.92C126.999 123.528 127.339 123.225 127.769 123.01C128.207 122.795 128.688 122.688 129.211 122.688ZM133.952 126.65C133.952 125.857 134.11 125.166 134.428 124.578C134.745 123.981 135.184 123.519 135.744 123.192C136.313 122.865 136.962 122.702 137.69 122.702C138.632 122.702 139.407 122.931 140.014 123.388C140.63 123.845 141.036 124.48 141.232 125.292H139.86C139.729 124.825 139.472 124.457 139.09 124.186C138.716 123.915 138.25 123.78 137.69 123.78C136.962 123.78 136.374 124.032 135.926 124.536C135.478 125.031 135.254 125.735 135.254 126.65C135.254 127.574 135.478 128.288 135.926 128.792C136.374 129.296 136.962 129.548 137.69 129.548C138.25 129.548 138.716 129.417 139.09 129.156C139.463 128.895 139.72 128.521 139.86 128.036H141.232C141.026 128.82 140.616 129.45 140 129.926C139.384 130.393 138.614 130.626 137.69 130.626C136.962 130.626 136.313 130.463 135.744 130.136C135.184 129.809 134.745 129.347 134.428 128.75C134.11 128.153 133.952 127.453 133.952 126.65ZM149.932 126.37C149.932 126.613 149.918 126.869 149.89 127.14H143.758C143.804 127.896 144.061 128.489 144.528 128.918C145.004 129.338 145.578 129.548 146.25 129.548C146.8 129.548 147.258 129.422 147.622 129.17C147.995 128.909 148.256 128.563 148.406 128.134H149.778C149.572 128.871 149.162 129.473 148.546 129.94C147.93 130.397 147.164 130.626 146.25 130.626C145.522 130.626 144.868 130.463 144.29 130.136C143.72 129.809 143.272 129.347 142.946 128.75C142.619 128.143 142.456 127.443 142.456 126.65C142.456 125.857 142.614 125.161 142.932 124.564C143.249 123.967 143.692 123.509 144.262 123.192C144.84 122.865 145.503 122.702 146.25 122.702C146.978 122.702 147.622 122.861 148.182 123.178C148.742 123.495 149.171 123.934 149.47 124.494C149.778 125.045 149.932 125.67 149.932 126.37ZM148.616 126.104C148.616 125.619 148.508 125.203 148.294 124.858C148.079 124.503 147.785 124.237 147.412 124.06C147.048 123.873 146.642 123.78 146.194 123.78C145.55 123.78 144.999 123.985 144.542 124.396C144.094 124.807 143.837 125.376 143.772 126.104H148.616ZM152.019 130.584C151.776 130.584 151.571 130.5 151.403 130.332C151.235 130.164 151.151 129.959 151.151 129.716C151.151 129.473 151.235 129.268 151.403 129.1C151.571 128.932 151.776 128.848 152.019 128.848C152.252 128.848 152.448 128.932 152.607 129.1C152.775 129.268 152.859 129.473 152.859 129.716C152.859 129.959 152.775 130.164 152.607 130.332C152.448 130.5 152.252 130.584 152.019 130.584ZM152.019 124.592C151.776 124.592 151.571 124.508 151.403 124.34C151.235 124.172 151.151 123.967 151.151 123.724C151.151 123.481 151.235 123.276 151.403 123.108C151.571 122.94 151.776 122.856 152.019 122.856C152.252 122.856 152.448 122.94 152.607 123.108C152.775 123.276 152.859 123.481 152.859 123.724C152.859 123.967 152.775 124.172 152.607 124.34C152.448 124.508 152.252 124.592 152.019 124.592ZM164.094 128.33H159.838L159.054 130.5H157.71L161.238 120.798H162.708L166.222 130.5H164.878L164.094 128.33ZM163.73 127.294L161.966 122.366L160.202 127.294H163.73ZM169.034 120.14V130.5H167.76V120.14H169.034ZM171.863 121.582C171.62 121.582 171.415 121.498 171.247 121.33C171.079 121.162 170.995 120.957 170.995 120.714C170.995 120.471 171.079 120.266 171.247 120.098C171.415 119.93 171.62 119.846 171.863 119.846C172.096 119.846 172.292 119.93 172.451 120.098C172.619 120.266 172.703 120.471 172.703 120.714C172.703 120.957 172.619 121.162 172.451 121.33C172.292 121.498 172.096 121.582 171.863 121.582ZM172.479 122.828V130.5H171.205V122.828H172.479ZM177.814 122.702C178.477 122.702 179.056 122.847 179.55 123.136C180.054 123.425 180.428 123.789 180.67 124.228V122.828H181.958V130.668C181.958 131.368 181.809 131.989 181.51 132.53C181.212 133.081 180.782 133.51 180.222 133.818C179.672 134.126 179.028 134.28 178.29 134.28C177.282 134.28 176.442 134.042 175.77 133.566C175.098 133.09 174.702 132.441 174.58 131.62H175.84C175.98 132.087 176.27 132.46 176.708 132.74C177.147 133.029 177.674 133.174 178.29 133.174C178.99 133.174 179.56 132.955 179.998 132.516C180.446 132.077 180.67 131.461 180.67 130.668V129.058C180.418 129.506 180.045 129.879 179.55 130.178C179.056 130.477 178.477 130.626 177.814 130.626C177.133 130.626 176.512 130.458 175.952 130.122C175.402 129.786 174.968 129.315 174.65 128.708C174.333 128.101 174.174 127.411 174.174 126.636C174.174 125.852 174.333 125.166 174.65 124.578C174.968 123.981 175.402 123.519 175.952 123.192C176.512 122.865 177.133 122.702 177.814 122.702ZM180.67 126.65C180.67 126.071 180.554 125.567 180.32 125.138C180.087 124.709 179.77 124.382 179.368 124.158C178.976 123.925 178.542 123.808 178.066 123.808C177.59 123.808 177.156 123.92 176.764 124.144C176.372 124.368 176.06 124.695 175.826 125.124C175.593 125.553 175.476 126.057 175.476 126.636C175.476 127.224 175.593 127.737 175.826 128.176C176.06 128.605 176.372 128.937 176.764 129.17C177.156 129.394 177.59 129.506 178.066 129.506C178.542 129.506 178.976 129.394 179.368 129.17C179.77 128.937 180.087 128.605 180.32 128.176C180.554 127.737 180.67 127.229 180.67 126.65ZM187.849 122.688C188.783 122.688 189.539 122.973 190.117 123.542C190.696 124.102 190.985 124.914 190.985 125.978V130.5H189.725V126.16C189.725 125.395 189.534 124.811 189.151 124.41C188.769 123.999 188.246 123.794 187.583 123.794C186.911 123.794 186.375 124.004 185.973 124.424C185.581 124.844 185.385 125.455 185.385 126.258V130.5H184.111V122.828H185.385V123.92C185.637 123.528 185.978 123.225 186.407 123.01C186.846 122.795 187.327 122.688 187.849 122.688ZM203.407 122.828L198.787 134.112H197.471L198.983 130.416L195.889 122.828H197.303L199.711 129.044L202.091 122.828H203.407ZM208.033 130.626C207.315 130.626 206.661 130.463 206.073 130.136C205.495 129.809 205.037 129.347 204.701 128.75C204.375 128.143 204.211 127.443 204.211 126.65C204.211 125.866 204.379 125.175 204.715 124.578C205.061 123.971 205.527 123.509 206.115 123.192C206.703 122.865 207.361 122.702 208.089 122.702C208.817 122.702 209.475 122.865 210.063 123.192C210.651 123.509 211.113 123.967 211.449 124.564C211.795 125.161 211.967 125.857 211.967 126.65C211.967 127.443 211.79 128.143 211.435 128.75C211.09 129.347 210.619 129.809 210.021 130.136C209.424 130.463 208.761 130.626 208.033 130.626ZM208.033 129.506C208.491 129.506 208.92 129.399 209.321 129.184C209.723 128.969 210.045 128.647 210.287 128.218C210.539 127.789 210.665 127.266 210.665 126.65C210.665 126.034 210.544 125.511 210.301 125.082C210.059 124.653 209.741 124.335 209.349 124.13C208.957 123.915 208.533 123.808 208.075 123.808C207.609 123.808 207.179 123.915 206.787 124.13C206.405 124.335 206.097 124.653 205.863 125.082C205.63 125.511 205.513 126.034 205.513 126.65C205.513 127.275 205.625 127.803 205.849 128.232C206.083 128.661 206.391 128.983 206.773 129.198C207.156 129.403 207.576 129.506 208.033 129.506ZM220.446 122.828V130.5H219.172V129.366C218.93 129.758 218.589 130.066 218.15 130.29C217.721 130.505 217.245 130.612 216.722 130.612C216.125 130.612 215.588 130.491 215.112 130.248C214.636 129.996 214.258 129.623 213.978 129.128C213.708 128.633 213.572 128.031 213.572 127.322V122.828H214.832V127.154C214.832 127.91 215.024 128.493 215.406 128.904C215.789 129.305 216.312 129.506 216.974 129.506C217.656 129.506 218.192 129.296 218.584 128.876C218.976 128.456 219.172 127.845 219.172 127.042V122.828H220.446ZM223.872 124.074C224.096 123.635 224.413 123.295 224.824 123.052C225.244 122.809 225.752 122.688 226.35 122.688V124.004H226.014C224.586 124.004 223.872 124.779 223.872 126.328V130.5H222.598V122.828H223.872V124.074ZM233.107 123.878V128.4C233.107 128.773 233.186 129.039 233.345 129.198C233.503 129.347 233.779 129.422 234.171 129.422H235.109V130.5H233.961C233.251 130.5 232.719 130.337 232.365 130.01C232.01 129.683 231.833 129.147 231.833 128.4V123.878H230.839V122.828H231.833V120.896H233.107V122.828H235.109V123.878H233.107ZM243.652 126.37C243.652 126.613 243.638 126.869 243.61 127.14H237.478C237.525 127.896 237.782 128.489 238.248 128.918C238.724 129.338 239.298 129.548 239.97 129.548C240.521 129.548 240.978 129.422 241.342 129.17C241.716 128.909 241.977 128.563 242.126 128.134H243.498C243.293 128.871 242.882 129.473 242.266 129.94C241.65 130.397 240.885 130.626 239.97 130.626C239.242 130.626 238.589 130.463 238.01 130.136C237.441 129.809 236.993 129.347 236.666 128.75C236.34 128.143 236.176 127.443 236.176 126.65C236.176 125.857 236.335 125.161 236.652 124.564C236.97 123.967 237.413 123.509 237.982 123.192C238.561 122.865 239.224 122.702 239.97 122.702C240.698 122.702 241.342 122.861 241.902 123.178C242.462 123.495 242.892 123.934 243.19 124.494C243.498 125.045 243.652 125.67 243.652 126.37ZM242.336 126.104C242.336 125.619 242.229 125.203 242.014 124.858C241.8 124.503 241.506 124.237 241.132 124.06C240.768 123.873 240.362 123.78 239.914 123.78C239.27 123.78 238.72 123.985 238.262 124.396C237.814 124.807 237.558 125.376 237.492 126.104H242.336ZM244.858 126.65C244.858 125.857 245.017 125.166 245.334 124.578C245.651 123.981 246.09 123.519 246.65 123.192C247.219 122.865 247.868 122.702 248.596 122.702C249.539 122.702 250.313 122.931 250.92 123.388C251.536 123.845 251.942 124.48 252.138 125.292H250.766C250.635 124.825 250.379 124.457 249.996 124.186C249.623 123.915 249.156 123.78 248.596 123.78C247.868 123.78 247.28 124.032 246.832 124.536C246.384 125.031 246.16 125.735 246.16 126.65C246.16 127.574 246.384 128.288 246.832 128.792C247.28 129.296 247.868 129.548 248.596 129.548C249.156 129.548 249.623 129.417 249.996 129.156C250.369 128.895 250.626 128.521 250.766 128.036H252.138C251.933 128.82 251.522 129.45 250.906 129.926C250.29 130.393 249.52 130.626 248.596 130.626C247.868 130.626 247.219 130.463 246.65 130.136C246.09 129.809 245.651 129.347 245.334 128.75C245.017 128.153 244.858 127.453 244.858 126.65ZM257.646 122.688C258.224 122.688 258.747 122.814 259.214 123.066C259.68 123.309 260.044 123.677 260.306 124.172C260.576 124.667 260.712 125.269 260.712 125.978V130.5H259.452V126.16C259.452 125.395 259.26 124.811 258.878 124.41C258.495 123.999 257.972 123.794 257.31 123.794C256.638 123.794 256.101 124.004 255.7 124.424C255.308 124.844 255.112 125.455 255.112 126.258V130.5H253.838V120.14H255.112V123.92C255.364 123.528 255.709 123.225 256.148 123.01C256.596 122.795 257.095 122.688 257.646 122.688ZM266.531 122.688C267.464 122.688 268.22 122.973 268.799 123.542C269.378 124.102 269.667 124.914 269.667 125.978V130.5H268.407V126.16C268.407 125.395 268.216 124.811 267.833 124.41C267.45 123.999 266.928 123.794 266.265 123.794C265.593 123.794 265.056 124.004 264.655 124.424C264.263 124.844 264.067 125.455 264.067 126.258V130.5H262.793V122.828H264.067V123.92C264.319 123.528 264.66 123.225 265.089 123.01C265.528 122.795 266.008 122.688 266.531 122.688ZM275.094 130.626C274.375 130.626 273.722 130.463 273.134 130.136C272.555 129.809 272.098 129.347 271.762 128.75C271.435 128.143 271.272 127.443 271.272 126.65C271.272 125.866 271.44 125.175 271.776 124.578C272.121 123.971 272.588 123.509 273.176 123.192C273.764 122.865 274.422 122.702 275.15 122.702C275.878 122.702 276.536 122.865 277.124 123.192C277.712 123.509 278.174 123.967 278.51 124.564C278.855 125.161 279.028 125.857 279.028 126.65C279.028 127.443 278.851 128.143 278.496 128.75C278.151 129.347 277.679 129.809 277.082 130.136C276.485 130.463 275.822 130.626 275.094 130.626ZM275.094 129.506C275.551 129.506 275.981 129.399 276.382 129.184C276.783 128.969 277.105 128.647 277.348 128.218C277.6 127.789 277.726 127.266 277.726 126.65C277.726 126.034 277.605 125.511 277.362 125.082C277.119 124.653 276.802 124.335 276.41 124.13C276.018 123.915 275.593 123.808 275.136 123.808C274.669 123.808 274.24 123.915 273.848 124.13C273.465 124.335 273.157 124.653 272.924 125.082C272.691 125.511 272.574 126.034 272.574 126.65C272.574 127.275 272.686 127.803 272.91 128.232C273.143 128.661 273.451 128.983 273.834 129.198C274.217 129.403 274.637 129.506 275.094 129.506ZM281.977 120.14V130.5H280.703V120.14H281.977ZM287.494 130.626C286.776 130.626 286.122 130.463 285.534 130.136C284.956 129.809 284.498 129.347 284.162 128.75C283.836 128.143 283.672 127.443 283.672 126.65C283.672 125.866 283.84 125.175 284.176 124.578C284.522 123.971 284.988 123.509 285.576 123.192C286.164 122.865 286.822 122.702 287.55 122.702C288.278 122.702 288.936 122.865 289.524 123.192C290.112 123.509 290.574 123.967 290.91 124.564C291.256 125.161 291.428 125.857 291.428 126.65C291.428 127.443 291.251 128.143 290.896 128.75C290.551 129.347 290.08 129.809 289.482 130.136C288.885 130.463 288.222 130.626 287.494 130.626ZM287.494 129.506C287.952 129.506 288.381 129.399 288.782 129.184C289.184 128.969 289.506 128.647 289.748 128.218C290 127.789 290.126 127.266 290.126 126.65C290.126 126.034 290.005 125.511 289.762 125.082C289.52 124.653 289.202 124.335 288.81 124.13C288.418 123.915 287.994 123.808 287.536 123.808C287.07 123.808 286.64 123.915 286.248 124.13C285.866 124.335 285.558 124.653 285.324 125.082C285.091 125.511 284.974 126.034 284.974 126.65C284.974 127.275 285.086 127.803 285.31 128.232C285.544 128.661 285.852 128.983 286.234 129.198C286.617 129.403 287.037 129.506 287.494 129.506ZM296.267 122.702C296.93 122.702 297.509 122.847 298.003 123.136C298.507 123.425 298.881 123.789 299.123 124.228V122.828H300.411V130.668C300.411 131.368 300.262 131.989 299.963 132.53C299.665 133.081 299.235 133.51 298.675 133.818C298.125 134.126 297.481 134.28 296.743 134.28C295.735 134.28 294.895 134.042 294.223 133.566C293.551 133.09 293.155 132.441 293.033 131.62H294.293C294.433 132.087 294.723 132.46 295.161 132.74C295.6 133.029 296.127 133.174 296.743 133.174C297.443 133.174 298.013 132.955 298.451 132.516C298.899 132.077 299.123 131.461 299.123 130.668V129.058C298.871 129.506 298.498 129.879 298.003 130.178C297.509 130.477 296.93 130.626 296.267 130.626C295.586 130.626 294.965 130.458 294.405 130.122C293.855 129.786 293.421 129.315 293.103 128.708C292.786 128.101 292.627 127.411 292.627 126.636C292.627 125.852 292.786 125.166 293.103 124.578C293.421 123.981 293.855 123.519 294.405 123.192C294.965 122.865 295.586 122.702 296.267 122.702ZM299.123 126.65C299.123 126.071 299.007 125.567 298.773 125.138C298.54 124.709 298.223 124.382 297.821 124.158C297.429 123.925 296.995 123.808 296.519 123.808C296.043 123.808 295.609 123.92 295.217 124.144C294.825 124.368 294.513 124.695 294.279 125.124C294.046 125.553 293.929 126.057 293.929 126.636C293.929 127.224 294.046 127.737 294.279 128.176C294.513 128.605 294.825 128.937 295.217 129.17C295.609 129.394 296.043 129.506 296.519 129.506C296.995 129.506 297.429 129.394 297.821 129.17C298.223 128.937 298.54 128.605 298.773 128.176C299.007 127.737 299.123 127.229 299.123 126.65ZM309.172 122.828L304.552 134.112H303.236L304.748 130.416L301.654 122.828H303.068L305.476 129.044L307.856 122.828H309.172ZM4.294 151.626C3.706 151.626 3.17867 151.528 2.712 151.332C2.24533 151.127 1.87667 150.847 1.606 150.492C1.33533 150.128 1.186 149.713 1.158 149.246H2.474C2.51133 149.629 2.68867 149.941 3.006 150.184C3.33267 150.427 3.75733 150.548 4.28 150.548C4.76533 150.548 5.148 150.441 5.428 150.226C5.708 150.011 5.848 149.741 5.848 149.414C5.848 149.078 5.69867 148.831 5.4 148.672C5.10133 148.504 4.63933 148.341 4.014 148.182C3.44467 148.033 2.978 147.883 2.614 147.734C2.25933 147.575 1.95133 147.347 1.69 147.048C1.438 146.74 1.312 146.339 1.312 145.844C1.312 145.452 1.42867 145.093 1.662 144.766C1.89533 144.439 2.22667 144.183 2.656 143.996C3.08533 143.8 3.57533 143.702 4.126 143.702C4.97533 143.702 5.66133 143.917 6.184 144.346C6.70667 144.775 6.98667 145.363 7.024 146.11H5.75C5.722 145.709 5.55867 145.387 5.26 145.144C4.97067 144.901 4.57867 144.78 4.084 144.78C3.62667 144.78 3.26267 144.878 2.992 145.074C2.72133 145.27 2.586 145.527 2.586 145.844C2.586 146.096 2.66533 146.306 2.824 146.474C2.992 146.633 3.19733 146.763 3.44 146.866C3.692 146.959 4.03733 147.067 4.476 147.188C5.02667 147.337 5.47467 147.487 5.82 147.636C6.16533 147.776 6.45933 147.991 6.702 148.28C6.954 148.569 7.08467 148.947 7.094 149.414C7.094 149.834 6.97733 150.212 6.744 150.548C6.51067 150.884 6.17933 151.15 5.75 151.346C5.33 151.533 4.84467 151.626 4.294 151.626ZM10.4465 144.878V149.4C10.4465 149.773 10.5258 150.039 10.6845 150.198C10.8431 150.347 11.1185 150.422 11.5105 150.422H12.4485V151.5H11.3005C10.5911 151.5 10.0591 151.337 9.70445 151.01C9.34979 150.683 9.17245 150.147 9.17245 149.4V144.878H8.17845V143.828H9.17245V141.896H10.4465V143.828H12.4485V144.878H10.4465ZM15.2661 145.074C15.4901 144.635 15.8074 144.295 16.2181 144.052C16.6381 143.809 17.1467 143.688 17.7441 143.688V145.004H17.4081C15.9801 145.004 15.2661 145.779 15.2661 147.328V151.5H13.9921V143.828H15.2661V145.074ZM18.7387 147.636C18.7387 146.852 18.8974 146.166 19.2147 145.578C19.5321 144.981 19.9661 144.519 20.5167 144.192C21.0767 143.865 21.6974 143.702 22.3787 143.702C23.0507 143.702 23.6341 143.847 24.1287 144.136C24.6234 144.425 24.9921 144.789 25.2347 145.228V143.828H26.5227V151.5H25.2347V150.072C24.9827 150.52 24.6047 150.893 24.1007 151.192C23.6061 151.481 23.0274 151.626 22.3647 151.626C21.6834 151.626 21.0674 151.458 20.5167 151.122C19.9661 150.786 19.5321 150.315 19.2147 149.708C18.8974 149.101 18.7387 148.411 18.7387 147.636ZM25.2347 147.65C25.2347 147.071 25.1181 146.567 24.8847 146.138C24.6514 145.709 24.3341 145.382 23.9327 145.158C23.5407 144.925 23.1067 144.808 22.6307 144.808C22.1547 144.808 21.7207 144.92 21.3287 145.144C20.9367 145.368 20.6241 145.695 20.3907 146.124C20.1574 146.553 20.0407 147.057 20.0407 147.636C20.0407 148.224 20.1574 148.737 20.3907 149.176C20.6241 149.605 20.9367 149.937 21.3287 150.17C21.7207 150.394 22.1547 150.506 22.6307 150.506C23.1067 150.506 23.5407 150.394 23.9327 150.17C24.3341 149.937 24.6514 149.605 24.8847 149.176C25.1181 148.737 25.2347 148.229 25.2347 147.65ZM30.2297 144.878V149.4C30.2297 149.773 30.309 150.039 30.4677 150.198C30.6263 150.347 30.9017 150.422 31.2937 150.422H32.2317V151.5H31.0837C30.3743 151.5 29.8423 151.337 29.4877 151.01C29.133 150.683 28.9557 150.147 28.9557 149.4V144.878H27.9617V143.828H28.9557V141.896H30.2297V143.828H32.2317V144.878H30.2297ZM40.7753 147.37C40.7753 147.613 40.7613 147.869 40.7333 148.14H34.6013C34.6479 148.896 34.9046 149.489 35.3713 149.918C35.8473 150.338 36.4213 150.548 37.0933 150.548C37.6439 150.548 38.1013 150.422 38.4653 150.17C38.8386 149.909 39.0999 149.563 39.2493 149.134H40.6213C40.4159 149.871 40.0053 150.473 39.3893 150.94C38.7733 151.397 38.0079 151.626 37.0933 151.626C36.3653 151.626 35.7119 151.463 35.1333 151.136C34.5639 150.809 34.1159 150.347 33.7893 149.75C33.4626 149.143 33.2993 148.443 33.2993 147.65C33.2993 146.857 33.4579 146.161 33.7753 145.564C34.0926 144.967 34.5359 144.509 35.1053 144.192C35.6839 143.865 36.3466 143.702 37.0933 143.702C37.8213 143.702 38.4653 143.861 39.0253 144.178C39.5853 144.495 40.0146 144.934 40.3133 145.494C40.6213 146.045 40.7753 146.67 40.7753 147.37ZM39.4593 147.104C39.4593 146.619 39.3519 146.203 39.1373 145.858C38.9226 145.503 38.6286 145.237 38.2553 145.06C37.8913 144.873 37.4853 144.78 37.0373 144.78C36.3933 144.78 35.8426 144.985 35.3853 145.396C34.9373 145.807 34.6806 146.376 34.6153 147.104H39.4593ZM45.6209 143.702C46.2836 143.702 46.8622 143.847 47.3569 144.136C47.8609 144.425 48.2342 144.789 48.4769 145.228V143.828H49.7649V151.668C49.7649 152.368 49.6156 152.989 49.3169 153.53C49.0182 154.081 48.5889 154.51 48.0289 154.818C47.4782 155.126 46.8342 155.28 46.0969 155.28C45.0889 155.28 44.2489 155.042 43.5769 154.566C42.9049 154.09 42.5082 153.441 42.3869 152.62H43.6469C43.7869 153.087 44.0762 153.46 44.5149 153.74C44.9536 154.029 45.4809 154.174 46.0969 154.174C46.7969 154.174 47.3662 153.955 47.8049 153.516C48.2529 153.077 48.4769 152.461 48.4769 151.668V150.058C48.2249 150.506 47.8516 150.879 47.3569 151.178C46.8622 151.477 46.2836 151.626 45.6209 151.626C44.9396 151.626 44.3189 151.458 43.7589 151.122C43.2082 150.786 42.7742 150.315 42.4569 149.708C42.1396 149.101 41.9809 148.411 41.9809 147.636C41.9809 146.852 42.1396 146.166 42.4569 145.578C42.7742 144.981 43.2082 144.519 43.7589 144.192C44.3189 143.865 44.9396 143.702 45.6209 143.702ZM48.4769 147.65C48.4769 147.071 48.3602 146.567 48.1269 146.138C47.8936 145.709 47.5762 145.382 47.1749 145.158C46.7829 144.925 46.3489 144.808 45.8729 144.808C45.3969 144.808 44.9629 144.92 44.5709 145.144C44.1789 145.368 43.8662 145.695 43.6329 146.124C43.3996 146.553 43.2829 147.057 43.2829 147.636C43.2829 148.224 43.3996 148.737 43.6329 149.176C43.8662 149.605 44.1789 149.937 44.5709 150.17C44.9629 150.394 45.3969 150.506 45.8729 150.506C46.3489 150.506 46.7829 150.394 47.1749 150.17C47.5762 149.937 47.8936 149.605 48.1269 149.176C48.3602 148.737 48.4769 148.229 48.4769 147.65ZM58.5258 143.828L53.9058 155.112H52.5898L54.1018 151.416L51.0078 143.828H52.4218L54.8298 150.044L57.2098 143.828H58.5258ZM73.7589 143.828L71.3649 151.5H70.0489L68.2009 145.41L66.3529 151.5H65.0369L62.6289 143.828H63.9309L65.6949 150.268L67.5989 143.828H68.9009L70.7629 150.282L72.4989 143.828H73.7589ZM75.6813 142.582C75.4386 142.582 75.2333 142.498 75.0653 142.33C74.8973 142.162 74.8133 141.957 74.8133 141.714C74.8133 141.471 74.8973 141.266 75.0653 141.098C75.2333 140.93 75.4386 140.846 75.6813 140.846C75.9146 140.846 76.1106 140.93 76.2693 141.098C76.4373 141.266 76.5213 141.471 76.5213 141.714C76.5213 141.957 76.4373 142.162 76.2693 142.33C76.1106 142.498 75.9146 142.582 75.6813 142.582ZM76.2973 143.828V151.5H75.0233V143.828H76.2973ZM80.0226 144.878V149.4C80.0226 149.773 80.102 150.039 80.2606 150.198C80.4193 150.347 80.6946 150.422 81.0866 150.422H82.0246V151.5H80.8766C80.1673 151.5 79.6353 151.337 79.2806 151.01C78.926 150.683 78.7486 150.147 78.7486 149.4V144.878H77.7546V143.828H78.7486V141.896H80.0226V143.828H82.0246V144.878H80.0226ZM87.3762 143.688C87.9549 143.688 88.4776 143.814 88.9442 144.066C89.4109 144.309 89.7749 144.677 90.0362 145.172C90.3069 145.667 90.4422 146.269 90.4422 146.978V151.5H89.1822V147.16C89.1822 146.395 88.9909 145.811 88.6082 145.41C88.2256 144.999 87.7029 144.794 87.0402 144.794C86.3682 144.794 85.8316 145.004 85.4302 145.424C85.0382 145.844 84.8422 146.455 84.8422 147.258V151.5H83.5682V141.14H84.8422V144.92C85.0942 144.528 85.4396 144.225 85.8782 144.01C86.3262 143.795 86.8256 143.688 87.3762 143.688ZM102.864 143.828L98.2437 155.112H96.9277L98.4397 151.416L95.3457 143.828H96.7597L99.1677 150.044L101.548 143.828H102.864ZM107.49 151.626C106.772 151.626 106.118 151.463 105.53 151.136C104.952 150.809 104.494 150.347 104.158 149.75C103.832 149.143 103.668 148.443 103.668 147.65C103.668 146.866 103.836 146.175 104.172 145.578C104.518 144.971 104.984 144.509 105.572 144.192C106.16 143.865 106.818 143.702 107.546 143.702C108.274 143.702 108.932 143.865 109.52 144.192C110.108 144.509 110.57 144.967 110.906 145.564C111.252 146.161 111.424 146.857 111.424 147.65C111.424 148.443 111.247 149.143 110.892 149.75C110.547 150.347 110.076 150.809 109.478 151.136C108.881 151.463 108.218 151.626 107.49 151.626ZM107.49 150.506C107.948 150.506 108.377 150.399 108.778 150.184C109.18 149.969 109.502 149.647 109.744 149.218C109.996 148.789 110.122 148.266 110.122 147.65C110.122 147.034 110.001 146.511 109.758 146.082C109.516 145.653 109.198 145.335 108.806 145.13C108.414 144.915 107.99 144.808 107.532 144.808C107.066 144.808 106.636 144.915 106.244 145.13C105.862 145.335 105.554 145.653 105.32 146.082C105.087 146.511 104.97 147.034 104.97 147.65C104.97 148.275 105.082 148.803 105.306 149.232C105.54 149.661 105.848 149.983 106.23 150.198C106.613 150.403 107.033 150.506 107.49 150.506ZM119.903 143.828V151.5H118.629V150.366C118.387 150.758 118.046 151.066 117.607 151.29C117.178 151.505 116.702 151.612 116.179 151.612C115.582 151.612 115.045 151.491 114.569 151.248C114.093 150.996 113.715 150.623 113.435 150.128C113.165 149.633 113.029 149.031 113.029 148.322V143.828H114.289V148.154C114.289 148.91 114.481 149.493 114.863 149.904C115.246 150.305 115.769 150.506 116.431 150.506C117.113 150.506 117.649 150.296 118.041 149.876C118.433 149.456 118.629 148.845 118.629 148.042V143.828H119.903ZM123.329 145.074C123.553 144.635 123.87 144.295 124.281 144.052C124.701 143.809 125.209 143.688 125.807 143.688V145.004H125.471C124.043 145.004 123.329 145.779 123.329 147.328V151.5H122.055V143.828H123.329V145.074ZM132.284 145.256C132.545 144.799 132.928 144.425 133.432 144.136C133.936 143.847 134.51 143.702 135.154 143.702C135.844 143.702 136.465 143.865 137.016 144.192C137.566 144.519 138 144.981 138.318 145.578C138.635 146.166 138.794 146.852 138.794 147.636C138.794 148.411 138.635 149.101 138.318 149.708C138 150.315 137.562 150.786 137.002 151.122C136.451 151.458 135.835 151.626 135.154 151.626C134.491 151.626 133.908 151.481 133.404 151.192C132.909 150.903 132.536 150.534 132.284 150.086V151.5H131.01V141.14H132.284V145.256ZM137.492 147.636C137.492 147.057 137.375 146.553 137.142 146.124C136.908 145.695 136.591 145.368 136.19 145.144C135.798 144.92 135.364 144.808 134.888 144.808C134.421 144.808 133.987 144.925 133.586 145.158C133.194 145.382 132.876 145.713 132.634 146.152C132.4 146.581 132.284 147.081 132.284 147.65C132.284 148.229 132.4 148.737 132.634 149.176C132.876 149.605 133.194 149.937 133.586 150.17C133.987 150.394 134.421 150.506 134.888 150.506C135.364 150.506 135.798 150.394 136.19 150.17C136.591 149.937 136.908 149.605 137.142 149.176C137.375 148.737 137.492 148.224 137.492 147.636ZM147.275 143.828V151.5H146.001V150.366C145.758 150.758 145.417 151.066 144.979 151.29C144.549 151.505 144.073 151.612 143.551 151.612C142.953 151.612 142.417 151.491 141.941 151.248C141.465 150.996 141.087 150.623 140.807 150.128C140.536 149.633 140.401 149.031 140.401 148.322V143.828H141.661V148.154C141.661 148.91 141.852 149.493 142.235 149.904C142.617 150.305 143.14 150.506 143.803 150.506C144.484 150.506 145.021 150.296 145.413 149.876C145.805 149.456 146.001 148.845 146.001 148.042V143.828H147.275ZM152.142 151.626C151.554 151.626 151.026 151.528 150.56 151.332C150.093 151.127 149.724 150.847 149.454 150.492C149.183 150.128 149.034 149.713 149.006 149.246H150.322C150.359 149.629 150.536 149.941 150.854 150.184C151.18 150.427 151.605 150.548 152.128 150.548C152.613 150.548 152.996 150.441 153.276 150.226C153.556 150.011 153.696 149.741 153.696 149.414C153.696 149.078 153.546 148.831 153.248 148.672C152.949 148.504 152.487 148.341 151.862 148.182C151.292 148.033 150.826 147.883 150.462 147.734C150.107 147.575 149.799 147.347 149.538 147.048C149.286 146.74 149.16 146.339 149.16 145.844C149.16 145.452 149.276 145.093 149.51 144.766C149.743 144.439 150.074 144.183 150.504 143.996C150.933 143.8 151.423 143.702 151.974 143.702C152.823 143.702 153.509 143.917 154.032 144.346C154.554 144.775 154.834 145.363 154.872 146.11H153.598C153.57 145.709 153.406 145.387 153.108 145.144C152.818 144.901 152.426 144.78 151.932 144.78C151.474 144.78 151.11 144.878 150.84 145.074C150.569 145.27 150.434 145.527 150.434 145.844C150.434 146.096 150.513 146.306 150.672 146.474C150.84 146.633 151.045 146.763 151.288 146.866C151.54 146.959 151.885 147.067 152.324 147.188C152.874 147.337 153.322 147.487 153.668 147.636C154.013 147.776 154.307 147.991 154.55 148.28C154.802 148.569 154.932 148.947 154.942 149.414C154.942 149.834 154.825 150.212 154.592 150.548C154.358 150.884 154.027 151.15 153.598 151.346C153.178 151.533 152.692 151.626 152.142 151.626ZM157.398 142.582C157.155 142.582 156.95 142.498 156.782 142.33C156.614 142.162 156.53 141.957 156.53 141.714C156.53 141.471 156.614 141.266 156.782 141.098C156.95 140.93 157.155 140.846 157.398 140.846C157.631 140.846 157.827 140.93 157.986 141.098C158.154 141.266 158.238 141.471 158.238 141.714C158.238 141.957 158.154 142.162 157.986 142.33C157.827 142.498 157.631 142.582 157.398 142.582ZM158.014 143.828V151.5H156.74V143.828H158.014ZM163.923 143.688C164.857 143.688 165.613 143.973 166.191 144.542C166.77 145.102 167.059 145.914 167.059 146.978V151.5H165.799V147.16C165.799 146.395 165.608 145.811 165.225 145.41C164.843 144.999 164.32 144.794 163.657 144.794C162.985 144.794 162.449 145.004 162.047 145.424C161.655 145.844 161.459 146.455 161.459 147.258V151.5H160.185V143.828H161.459V144.92C161.711 144.528 162.052 144.225 162.481 144.01C162.92 143.795 163.401 143.688 163.923 143.688ZM176.141 147.37C176.141 147.613 176.127 147.869 176.099 148.14H169.967C170.013 148.896 170.27 149.489 170.737 149.918C171.213 150.338 171.787 150.548 172.459 150.548C173.009 150.548 173.467 150.422 173.831 150.17C174.204 149.909 174.465 149.563 174.615 149.134H175.987C175.781 149.871 175.371 150.473 174.755 150.94C174.139 151.397 173.373 151.626 172.459 151.626C171.731 151.626 171.077 151.463 170.499 151.136C169.929 150.809 169.481 150.347 169.155 149.75C168.828 149.143 168.665 148.443 168.665 147.65C168.665 146.857 168.823 146.161 169.141 145.564C169.458 144.967 169.901 144.509 170.471 144.192C171.049 143.865 171.712 143.702 172.459 143.702C173.187 143.702 173.831 143.861 174.391 144.178C174.951 144.495 175.38 144.934 175.679 145.494C175.987 146.045 176.141 146.67 176.141 147.37ZM174.825 147.104C174.825 146.619 174.717 146.203 174.503 145.858C174.288 145.503 173.994 145.237 173.621 145.06C173.257 144.873 172.851 144.78 172.403 144.78C171.759 144.78 171.208 144.985 170.751 145.396C170.303 145.807 170.046 146.376 169.981 147.104H174.825ZM180.538 151.626C179.95 151.626 179.423 151.528 178.956 151.332C178.489 151.127 178.121 150.847 177.85 150.492C177.579 150.128 177.43 149.713 177.402 149.246H178.718C178.755 149.629 178.933 149.941 179.25 150.184C179.577 150.427 180.001 150.548 180.524 150.548C181.009 150.548 181.392 150.441 181.672 150.226C181.952 150.011 182.092 149.741 182.092 149.414C182.092 149.078 181.943 148.831 181.644 148.672C181.345 148.504 180.883 148.341 180.258 148.182C179.689 148.033 179.222 147.883 178.858 147.734C178.503 147.575 178.195 147.347 177.934 147.048C177.682 146.74 177.556 146.339 177.556 145.844C177.556 145.452 177.673 145.093 177.906 144.766C178.139 144.439 178.471 144.183 178.9 143.996C179.329 143.8 179.819 143.702 180.37 143.702C181.219 143.702 181.905 143.917 182.428 144.346C182.951 144.775 183.231 145.363 183.268 146.11H181.994C181.966 145.709 181.803 145.387 181.504 145.144C181.215 144.901 180.823 144.78 180.328 144.78C179.871 144.78 179.507 144.878 179.236 145.074C178.965 145.27 178.83 145.527 178.83 145.844C178.83 146.096 178.909 146.306 179.068 146.474C179.236 146.633 179.441 146.763 179.684 146.866C179.936 146.959 180.281 147.067 180.72 147.188C181.271 147.337 181.719 147.487 182.064 147.636C182.409 147.776 182.703 147.991 182.946 148.28C183.198 148.569 183.329 148.947 183.338 149.414C183.338 149.834 183.221 150.212 182.988 150.548C182.755 150.884 182.423 151.15 181.994 151.346C181.574 151.533 181.089 151.626 180.538 151.626ZM187.853 151.626C187.265 151.626 186.737 151.528 186.271 151.332C185.804 151.127 185.435 150.847 185.165 150.492C184.894 150.128 184.745 149.713 184.717 149.246H186.033C186.07 149.629 186.247 149.941 186.565 150.184C186.891 150.427 187.316 150.548 187.839 150.548C188.324 150.548 188.707 150.441 188.987 150.226C189.267 150.011 189.407 149.741 189.407 149.414C189.407 149.078 189.257 148.831 188.959 148.672C188.66 148.504 188.198 148.341 187.573 148.182C187.003 148.033 186.537 147.883 186.173 147.734C185.818 147.575 185.51 147.347 185.249 147.048C184.997 146.74 184.871 146.339 184.871 145.844C184.871 145.452 184.987 145.093 185.221 144.766C185.454 144.439 185.785 144.183 186.215 143.996C186.644 143.8 187.134 143.702 187.685 143.702C188.534 143.702 189.22 143.917 189.743 144.346C190.265 144.775 190.545 145.363 190.583 146.11H189.309C189.281 145.709 189.117 145.387 188.819 145.144C188.529 144.901 188.137 144.78 187.643 144.78C187.185 144.78 186.821 144.878 186.551 145.074C186.28 145.27 186.145 145.527 186.145 145.844C186.145 146.096 186.224 146.306 186.383 146.474C186.551 146.633 186.756 146.763 186.999 146.866C187.251 146.959 187.596 147.067 188.035 147.188C188.585 147.337 189.033 147.487 189.379 147.636C189.724 147.776 190.018 147.991 190.261 148.28C190.513 148.569 190.643 148.947 190.653 149.414C190.653 149.834 190.536 150.212 190.303 150.548C190.069 150.884 189.738 151.15 189.309 151.346C188.889 151.533 188.403 151.626 187.853 151.626ZM199.529 151.626C198.811 151.626 198.157 151.463 197.569 151.136C196.991 150.809 196.533 150.347 196.197 149.75C195.871 149.143 195.707 148.443 195.707 147.65C195.707 146.866 195.875 146.175 196.211 145.578C196.557 144.971 197.023 144.509 197.611 144.192C198.199 143.865 198.857 143.702 199.585 143.702C200.313 143.702 200.971 143.865 201.559 144.192C202.147 144.509 202.609 144.967 202.945 145.564C203.291 146.161 203.463 146.857 203.463 147.65C203.463 148.443 203.286 149.143 202.931 149.75C202.586 150.347 202.115 150.809 201.517 151.136C200.92 151.463 200.257 151.626 199.529 151.626ZM199.529 150.506C199.987 150.506 200.416 150.399 200.817 150.184C201.219 149.969 201.541 149.647 201.783 149.218C202.035 148.789 202.161 148.266 202.161 147.65C202.161 147.034 202.04 146.511 201.797 146.082C201.555 145.653 201.237 145.335 200.845 145.13C200.453 144.915 200.029 144.808 199.571 144.808C199.105 144.808 198.675 144.915 198.283 145.13C197.901 145.335 197.593 145.653 197.359 146.082C197.126 146.511 197.009 147.034 197.009 147.65C197.009 148.275 197.121 148.803 197.345 149.232C197.579 149.661 197.887 149.983 198.269 150.198C198.652 150.403 199.072 150.506 199.529 150.506ZM206.413 145.256C206.674 144.799 207.057 144.425 207.561 144.136C208.065 143.847 208.639 143.702 209.283 143.702C209.973 143.702 210.594 143.865 211.145 144.192C211.695 144.519 212.129 144.981 212.447 145.578C212.764 146.166 212.923 146.852 212.923 147.636C212.923 148.411 212.764 149.101 212.447 149.708C212.129 150.315 211.691 150.786 211.131 151.122C210.58 151.458 209.964 151.626 209.283 151.626C208.62 151.626 208.037 151.481 207.533 151.192C207.038 150.903 206.665 150.534 206.413 150.086V151.5H205.139V141.14H206.413V145.256ZM211.621 147.636C211.621 147.057 211.504 146.553 211.271 146.124C211.037 145.695 210.72 145.368 210.319 145.144C209.927 144.92 209.493 144.808 209.017 144.808C208.55 144.808 208.116 144.925 207.715 145.158C207.323 145.382 207.005 145.713 206.763 146.152C206.529 146.581 206.413 147.081 206.413 147.65C206.413 148.229 206.529 148.737 206.763 149.176C207.005 149.605 207.323 149.937 207.715 150.17C208.116 150.394 208.55 150.506 209.017 150.506C209.493 150.506 209.927 150.394 210.319 150.17C210.72 149.937 211.037 149.605 211.271 149.176C211.504 148.737 211.621 148.224 211.621 147.636ZM215.285 142.582C215.043 142.582 214.837 142.498 214.669 142.33C214.511 142.162 214.431 141.957 214.431 141.714C214.431 141.471 214.511 141.266 214.669 141.098C214.837 140.93 215.043 140.846 215.285 140.846C215.528 140.846 215.729 140.93 215.887 141.098C216.055 141.266 216.139 141.471 216.139 141.714C216.139 141.957 216.055 142.162 215.887 142.33C215.729 142.498 215.528 142.582 215.285 142.582ZM215.915 153.166C215.915 153.847 215.743 154.347 215.397 154.664C215.052 154.981 214.548 155.14 213.885 155.14H213.143V154.062H213.675C214.03 154.062 214.277 153.992 214.417 153.852C214.567 153.712 214.641 153.474 214.641 153.138V143.828H215.915V153.166ZM225.072 147.37C225.072 147.613 225.058 147.869 225.03 148.14H218.898C218.945 148.896 219.201 149.489 219.668 149.918C220.144 150.338 220.718 150.548 221.39 150.548C221.941 150.548 222.398 150.422 222.762 150.17C223.135 149.909 223.397 149.563 223.546 149.134H224.918C224.713 149.871 224.302 150.473 223.686 150.94C223.07 151.397 222.305 151.626 221.39 151.626C220.662 151.626 220.009 151.463 219.43 151.136C218.861 150.809 218.413 150.347 218.086 149.75C217.759 149.143 217.596 148.443 217.596 147.65C217.596 146.857 217.755 146.161 218.072 145.564C218.389 144.967 218.833 144.509 219.402 144.192C219.981 143.865 220.643 143.702 221.39 143.702C222.118 143.702 222.762 143.861 223.322 144.178C223.882 144.495 224.311 144.934 224.61 145.494C224.918 146.045 225.072 146.67 225.072 147.37ZM223.756 147.104C223.756 146.619 223.649 146.203 223.434 145.858C223.219 145.503 222.925 145.237 222.552 145.06C222.188 144.873 221.782 144.78 221.334 144.78C220.69 144.78 220.139 144.985 219.682 145.396C219.234 145.807 218.977 146.376 218.912 147.104H223.756ZM226.278 147.65C226.278 146.857 226.436 146.166 226.754 145.578C227.071 144.981 227.51 144.519 228.07 144.192C228.639 143.865 229.288 143.702 230.016 143.702C230.958 143.702 231.733 143.931 232.34 144.388C232.956 144.845 233.362 145.48 233.558 146.292H232.186C232.055 145.825 231.798 145.457 231.416 145.186C231.042 144.915 230.576 144.78 230.016 144.78C229.288 144.78 228.7 145.032 228.252 145.536C227.804 146.031 227.58 146.735 227.58 147.65C227.58 148.574 227.804 149.288 228.252 149.792C228.7 150.296 229.288 150.548 230.016 150.548C230.576 150.548 231.042 150.417 231.416 150.156C231.789 149.895 232.046 149.521 232.186 149.036H233.558C233.352 149.82 232.942 150.45 232.326 150.926C231.71 151.393 230.94 151.626 230.016 151.626C229.288 151.626 228.639 151.463 228.07 151.136C227.51 150.809 227.071 150.347 226.754 149.75C226.436 149.153 226.278 148.453 226.278 147.65ZM236.812 144.878V149.4C236.812 149.773 236.891 150.039 237.05 150.198C237.208 150.347 237.484 150.422 237.876 150.422H238.814V151.5H237.666C236.956 151.5 236.424 151.337 236.07 151.01C235.715 150.683 235.538 150.147 235.538 149.4V144.878H234.544V143.828H235.538V141.896H236.812V143.828H238.814V144.878H236.812ZM241.015 142.582C240.773 142.582 240.567 142.498 240.399 142.33C240.231 142.162 240.147 141.957 240.147 141.714C240.147 141.471 240.231 141.266 240.399 141.098C240.567 140.93 240.773 140.846 241.015 140.846C241.249 140.846 241.445 140.93 241.603 141.098C241.771 141.266 241.855 141.471 241.855 141.714C241.855 141.957 241.771 142.162 241.603 142.33C241.445 142.498 241.249 142.582 241.015 142.582ZM241.631 143.828V151.5H240.357V143.828H241.631ZM246.659 150.324L249.039 143.828H250.397L247.387 151.5H245.903L242.893 143.828H244.265L246.659 150.324ZM258.65 147.37C258.65 147.613 258.636 147.869 258.608 148.14H252.476C252.523 148.896 252.78 149.489 253.246 149.918C253.722 150.338 254.296 150.548 254.968 150.548C255.519 150.548 255.976 150.422 256.34 150.17C256.714 149.909 256.975 149.563 257.124 149.134H258.496C258.291 149.871 257.88 150.473 257.264 150.94C256.648 151.397 255.883 151.626 254.968 151.626C254.24 151.626 253.587 151.463 253.008 151.136C252.439 150.809 251.991 150.347 251.664 149.75C251.338 149.143 251.174 148.443 251.174 147.65C251.174 146.857 251.333 146.161 251.65 145.564C251.968 144.967 252.411 144.509 252.98 144.192C253.559 143.865 254.222 143.702 254.968 143.702C255.696 143.702 256.34 143.861 256.9 144.178C257.46 144.495 257.89 144.934 258.188 145.494C258.496 146.045 258.65 146.67 258.65 147.37ZM257.334 147.104C257.334 146.619 257.227 146.203 257.012 145.858C256.798 145.503 256.504 145.237 256.13 145.06C255.766 144.873 255.36 144.78 254.912 144.78C254.268 144.78 253.718 144.985 253.26 145.396C252.812 145.807 252.556 146.376 252.49 147.104H257.334ZM263.048 151.626C262.46 151.626 261.933 151.528 261.466 151.332C260.999 151.127 260.631 150.847 260.36 150.492C260.089 150.128 259.94 149.713 259.912 149.246H261.228C261.265 149.629 261.443 149.941 261.76 150.184C262.087 150.427 262.511 150.548 263.034 150.548C263.519 150.548 263.902 150.441 264.182 150.226C264.462 150.011 264.602 149.741 264.602 149.414C264.602 149.078 264.453 148.831 264.154 148.672C263.855 148.504 263.393 148.341 262.768 148.182C262.199 148.033 261.732 147.883 261.368 147.734C261.013 147.575 260.705 147.347 260.444 147.048C260.192 146.74 260.066 146.339 260.066 145.844C260.066 145.452 260.183 145.093 260.416 144.766C260.649 144.439 260.981 144.183 261.41 143.996C261.839 143.8 262.329 143.702 262.88 143.702C263.729 143.702 264.415 143.917 264.938 144.346C265.461 144.775 265.741 145.363 265.778 146.11H264.504C264.476 145.709 264.313 145.387 264.014 145.144C263.725 144.901 263.333 144.78 262.838 144.78C262.381 144.78 262.017 144.878 261.746 145.074C261.475 145.27 261.34 145.527 261.34 145.844C261.34 146.096 261.419 146.306 261.578 146.474C261.746 146.633 261.951 146.763 262.194 146.866C262.446 146.959 262.791 147.067 263.23 147.188C263.781 147.337 264.229 147.487 264.574 147.636C264.919 147.776 265.213 147.991 265.456 148.28C265.708 148.569 265.839 148.947 265.848 149.414C265.848 149.834 265.731 150.212 265.498 150.548C265.265 150.884 264.933 151.15 264.504 151.346C264.084 151.533 263.599 151.626 263.048 151.626ZM272.933 144.878V149.4C272.933 149.773 273.012 150.039 273.171 150.198C273.329 150.347 273.605 150.422 273.997 150.422H274.935V151.5H273.787C273.077 151.5 272.545 151.337 272.191 151.01C271.836 150.683 271.659 150.147 271.659 149.4V144.878H270.665V143.828H271.659V141.896H272.933V143.828H274.935V144.878H272.933ZM279.824 151.626C279.106 151.626 278.452 151.463 277.864 151.136C277.286 150.809 276.828 150.347 276.492 149.75C276.166 149.143 276.002 148.443 276.002 147.65C276.002 146.866 276.17 146.175 276.506 145.578C276.852 144.971 277.318 144.509 277.906 144.192C278.494 143.865 279.152 143.702 279.88 143.702C280.608 143.702 281.266 143.865 281.854 144.192C282.442 144.509 282.904 144.967 283.24 145.564C283.586 146.161 283.758 146.857 283.758 147.65C283.758 148.443 283.581 149.143 283.226 149.75C282.881 150.347 282.41 150.809 281.812 151.136C281.215 151.463 280.552 151.626 279.824 151.626ZM279.824 150.506C280.282 150.506 280.711 150.399 281.112 150.184C281.514 149.969 281.836 149.647 282.078 149.218C282.33 148.789 282.456 148.266 282.456 147.65C282.456 147.034 282.335 146.511 282.092 146.082C281.85 145.653 281.532 145.335 281.14 145.13C280.748 144.915 280.324 144.808 279.866 144.808C279.4 144.808 278.97 144.915 278.578 145.13C278.196 145.335 277.888 145.653 277.654 146.082C277.421 146.511 277.304 147.034 277.304 147.65C277.304 148.275 277.416 148.803 277.64 149.232C277.874 149.661 278.182 149.983 278.564 150.198C278.947 150.403 279.367 150.506 279.824 150.506ZM10.804 164.688C11.4013 164.688 11.9333 164.814 12.4 165.066C12.8667 165.309 13.2353 165.677 13.506 166.172C13.7767 166.667 13.912 167.269 13.912 167.978V172.5H12.652V168.16C12.652 167.395 12.4607 166.811 12.078 166.41C11.7047 165.999 11.196 165.794 10.552 165.794C9.88933 165.794 9.362 166.009 8.97 166.438C8.578 166.858 8.382 167.469 8.382 168.272V172.5H7.122V168.16C7.122 167.395 6.93067 166.811 6.548 166.41C6.17467 165.999 5.666 165.794 5.022 165.794C4.35933 165.794 3.832 166.009 3.44 166.438C3.048 166.858 2.852 167.469 2.852 168.272V172.5H1.578V164.828H2.852V165.934C3.104 165.533 3.44 165.225 3.86 165.01C4.28933 164.795 4.76067 164.688 5.274 164.688C5.918 164.688 6.48733 164.833 6.982 165.122C7.47667 165.411 7.84533 165.836 8.088 166.396C8.30267 165.855 8.65733 165.435 9.152 165.136C9.64667 164.837 10.1973 164.688 10.804 164.688ZM15.5258 168.636C15.5258 167.852 15.6845 167.166 16.0018 166.578C16.3192 165.981 16.7532 165.519 17.3038 165.192C17.8638 164.865 18.4845 164.702 19.1658 164.702C19.8378 164.702 20.4212 164.847 20.9158 165.136C21.4105 165.425 21.7792 165.789 22.0218 166.228V164.828H23.3098V172.5H22.0218V171.072C21.7698 171.52 21.3918 171.893 20.8878 172.192C20.3932 172.481 19.8145 172.626 19.1518 172.626C18.4705 172.626 17.8545 172.458 17.3038 172.122C16.7532 171.786 16.3192 171.315 16.0018 170.708C15.6845 170.101 15.5258 169.411 15.5258 168.636ZM22.0218 168.65C22.0218 168.071 21.9052 167.567 21.6718 167.138C21.4385 166.709 21.1212 166.382 20.7198 166.158C20.3278 165.925 19.8938 165.808 19.4178 165.808C18.9418 165.808 18.5078 165.92 18.1158 166.144C17.7238 166.368 17.4112 166.695 17.1778 167.124C16.9445 167.553 16.8278 168.057 16.8278 168.636C16.8278 169.224 16.9445 169.737 17.1778 170.176C17.4112 170.605 17.7238 170.937 18.1158 171.17C18.5078 171.394 18.9418 171.506 19.4178 171.506C19.8938 171.506 20.3278 171.394 20.7198 171.17C21.1212 170.937 21.4385 170.605 21.6718 170.176C21.9052 169.737 22.0218 169.229 22.0218 168.65ZM29.4668 172.5L27.6468 169.644L25.8968 172.5H24.5668L27.0448 168.692L24.5668 164.828H26.0088L27.8288 167.67L29.5648 164.828H30.8948L28.4308 168.622L30.9088 172.5H29.4668ZM32.82 163.582C32.5773 163.582 32.372 163.498 32.204 163.33C32.036 163.162 31.952 162.957 31.952 162.714C31.952 162.471 32.036 162.266 32.204 162.098C32.372 161.93 32.5773 161.846 32.82 161.846C33.0533 161.846 33.2493 161.93 33.408 162.098C33.576 162.266 33.66 162.471 33.66 162.714C33.66 162.957 33.576 163.162 33.408 163.33C33.2493 163.498 33.0533 163.582 32.82 163.582ZM33.436 164.828V172.5H32.162V164.828H33.436ZM44.8333 164.688C45.4306 164.688 45.9626 164.814 46.4293 165.066C46.896 165.309 47.2646 165.677 47.5353 166.172C47.806 166.667 47.9413 167.269 47.9413 167.978V172.5H46.6813V168.16C46.6813 167.395 46.49 166.811 46.1073 166.41C45.734 165.999 45.2253 165.794 44.5813 165.794C43.9186 165.794 43.3913 166.009 42.9993 166.438C42.6073 166.858 42.4113 167.469 42.4113 168.272V172.5H41.1513V168.16C41.1513 167.395 40.96 166.811 40.5773 166.41C40.204 165.999 39.6953 165.794 39.0513 165.794C38.3886 165.794 37.8613 166.009 37.4693 166.438C37.0773 166.858 36.8813 167.469 36.8813 168.272V172.5H35.6073V164.828H36.8813V165.934C37.1333 165.533 37.4693 165.225 37.8893 165.01C38.3186 164.795 38.79 164.688 39.3033 164.688C39.9473 164.688 40.5166 164.833 41.0113 165.122C41.506 165.411 41.8746 165.836 42.1173 166.396C42.332 165.855 42.6866 165.435 43.1813 165.136C43.676 164.837 44.2266 164.688 44.8333 164.688ZM50.6891 163.582C50.4465 163.582 50.2411 163.498 50.0731 163.33C49.9051 163.162 49.8211 162.957 49.8211 162.714C49.8211 162.471 49.9051 162.266 50.0731 162.098C50.2411 161.93 50.4465 161.846 50.6891 161.846C50.9225 161.846 51.1185 161.93 51.2771 162.098C51.4451 162.266 51.5291 162.471 51.5291 162.714C51.5291 162.957 51.4451 163.162 51.2771 163.33C51.1185 163.498 50.9225 163.582 50.6891 163.582ZM51.3051 164.828V172.5H50.0311V164.828H51.3051ZM54.4284 171.45H58.1944V172.5H52.9724V171.45L56.6964 165.864H53.0004V164.828H58.1664V165.864L54.4284 171.45ZM66.8475 168.37C66.8475 168.613 66.8335 168.869 66.8055 169.14H60.6735C60.7202 169.896 60.9769 170.489 61.4435 170.918C61.9195 171.338 62.4935 171.548 63.1655 171.548C63.7162 171.548 64.1735 171.422 64.5375 171.17C64.9109 170.909 65.1722 170.563 65.3215 170.134H66.6935C66.4882 170.871 66.0775 171.473 65.4615 171.94C64.8455 172.397 64.0802 172.626 63.1655 172.626C62.4375 172.626 61.7842 172.463 61.2055 172.136C60.6362 171.809 60.1882 171.347 59.8615 170.75C59.5349 170.143 59.3715 169.443 59.3715 168.65C59.3715 167.857 59.5302 167.161 59.8475 166.564C60.1649 165.967 60.6082 165.509 61.1775 165.192C61.7562 164.865 62.4189 164.702 63.1655 164.702C63.8935 164.702 64.5375 164.861 65.0975 165.178C65.6575 165.495 66.0869 165.934 66.3855 166.494C66.6935 167.045 66.8475 167.67 66.8475 168.37ZM65.5315 168.104C65.5315 167.619 65.4242 167.203 65.2095 166.858C64.9949 166.503 64.7009 166.237 64.3275 166.06C63.9635 165.873 63.5575 165.78 63.1095 165.78C62.4655 165.78 61.9149 165.985 61.4575 166.396C61.0095 166.807 60.7529 167.376 60.6875 168.104H65.5315ZM79.2616 168.37C79.2616 168.613 79.2476 168.869 79.2196 169.14H73.0876C73.1343 169.896 73.3909 170.489 73.8576 170.918C74.3336 171.338 74.9076 171.548 75.5796 171.548C76.1303 171.548 76.5876 171.422 76.9516 171.17C77.3249 170.909 77.5863 170.563 77.7356 170.134H79.1076C78.9023 170.871 78.4916 171.473 77.8756 171.94C77.2596 172.397 76.4943 172.626 75.5796 172.626C74.8516 172.626 74.1983 172.463 73.6196 172.136C73.0503 171.809 72.6023 171.347 72.2756 170.75C71.9489 170.143 71.7856 169.443 71.7856 168.65C71.7856 167.857 71.9443 167.161 72.2616 166.564C72.5789 165.967 73.0223 165.509 73.5916 165.192C74.1703 164.865 74.8329 164.702 75.5796 164.702C76.3076 164.702 76.9516 164.861 77.5116 165.178C78.0716 165.495 78.5009 165.934 78.7996 166.494C79.1076 167.045 79.2616 167.67 79.2616 168.37ZM77.9456 168.104C77.9456 167.619 77.8383 167.203 77.6236 166.858C77.4089 166.503 77.1149 166.237 76.7416 166.06C76.3776 165.873 75.9716 165.78 75.5236 165.78C74.8796 165.78 74.3289 165.985 73.8716 166.396C73.4236 166.807 73.1669 167.376 73.1016 168.104H77.9456ZM84.0652 165.878H82.4552V172.5H81.1812V165.878H80.1872V164.828H81.1812V164.282C81.1812 163.423 81.4006 162.798 81.8392 162.406C82.2872 162.005 83.0012 161.804 83.9812 161.804V162.868C83.4212 162.868 83.0246 162.98 82.7912 163.204C82.5672 163.419 82.4552 163.778 82.4552 164.282V164.828H84.0652V165.878ZM88.6727 165.878H87.0627V172.5H85.7887V165.878H84.7947V164.828H85.7887V164.282C85.7887 163.423 86.008 162.798 86.4467 162.406C86.8947 162.005 87.6087 161.804 88.5887 161.804V162.868C88.0287 162.868 87.632 162.98 87.3987 163.204C87.1747 163.419 87.0627 163.778 87.0627 164.282V164.828H88.6727V165.878ZM90.8161 163.582C90.5734 163.582 90.3681 163.498 90.2001 163.33C90.0321 163.162 89.9481 162.957 89.9481 162.714C89.9481 162.471 90.0321 162.266 90.2001 162.098C90.3681 161.93 90.5734 161.846 90.8161 161.846C91.0494 161.846 91.2454 161.93 91.4041 162.098C91.5721 162.266 91.6561 162.471 91.6561 162.714C91.6561 162.957 91.5721 163.162 91.4041 163.33C91.2454 163.498 91.0494 163.582 90.8161 163.582ZM91.4321 164.828V172.5H90.1581V164.828H91.4321ZM93.1274 168.65C93.1274 167.857 93.2861 167.166 93.6034 166.578C93.9207 165.981 94.3594 165.519 94.9194 165.192C95.4887 164.865 96.1374 164.702 96.8654 164.702C97.8081 164.702 98.5827 164.931 99.1894 165.388C99.8054 165.845 100.211 166.48 100.407 167.292H99.0354C98.9047 166.825 98.6481 166.457 98.2654 166.186C97.8921 165.915 97.4254 165.78 96.8654 165.78C96.1374 165.78 95.5494 166.032 95.1014 166.536C94.6534 167.031 94.4294 167.735 94.4294 168.65C94.4294 169.574 94.6534 170.288 95.1014 170.792C95.5494 171.296 96.1374 171.548 96.8654 171.548C97.4254 171.548 97.8921 171.417 98.2654 171.156C98.6387 170.895 98.8954 170.521 99.0354 170.036H100.407C100.202 170.82 99.7914 171.45 99.1754 171.926C98.5594 172.393 97.7894 172.626 96.8654 172.626C96.1374 172.626 95.4887 172.463 94.9194 172.136C94.3594 171.809 93.9207 171.347 93.6034 170.75C93.2861 170.153 93.1274 169.453 93.1274 168.65ZM102.765 163.582C102.523 163.582 102.317 163.498 102.149 163.33C101.981 163.162 101.897 162.957 101.897 162.714C101.897 162.471 101.981 162.266 102.149 162.098C102.317 161.93 102.523 161.846 102.765 161.846C102.999 161.846 103.195 161.93 103.353 162.098C103.521 162.266 103.605 162.471 103.605 162.714C103.605 162.957 103.521 163.162 103.353 163.33C103.195 163.498 102.999 163.582 102.765 163.582ZM103.381 164.828V172.5H102.107V164.828H103.381ZM112.553 168.37C112.553 168.613 112.539 168.869 112.511 169.14H106.379C106.425 169.896 106.682 170.489 107.149 170.918C107.625 171.338 108.199 171.548 108.871 171.548C109.421 171.548 109.879 171.422 110.243 171.17C110.616 170.909 110.877 170.563 111.027 170.134H112.399C112.193 170.871 111.783 171.473 111.167 171.94C110.551 172.397 109.785 172.626 108.871 172.626C108.143 172.626 107.489 172.463 106.911 172.136C106.341 171.809 105.893 171.347 105.567 170.75C105.24 170.143 105.077 169.443 105.077 168.65C105.077 167.857 105.235 167.161 105.553 166.564C105.87 165.967 106.313 165.509 106.883 165.192C107.461 164.865 108.124 164.702 108.871 164.702C109.599 164.702 110.243 164.861 110.803 165.178C111.363 165.495 111.792 165.934 112.091 166.494C112.399 167.045 112.553 167.67 112.553 168.37ZM111.237 168.104C111.237 167.619 111.129 167.203 110.915 166.858C110.7 166.503 110.406 166.237 110.033 166.06C109.669 165.873 109.263 165.78 108.815 165.78C108.171 165.78 107.62 165.985 107.163 166.396C106.715 166.807 106.458 167.376 106.393 168.104H111.237ZM117.972 164.688C118.906 164.688 119.662 164.973 120.24 165.542C120.819 166.102 121.108 166.914 121.108 167.978V172.5H119.848V168.16C119.848 167.395 119.657 166.811 119.274 166.41C118.892 165.999 118.369 165.794 117.706 165.794C117.034 165.794 116.498 166.004 116.096 166.424C115.704 166.844 115.508 167.455 115.508 168.258V172.5H114.234V164.828H115.508V165.92C115.76 165.528 116.101 165.225 116.53 165.01C116.969 164.795 117.45 164.688 117.972 164.688ZM122.713 168.65C122.713 167.857 122.872 167.166 123.189 166.578C123.507 165.981 123.945 165.519 124.505 165.192C125.075 164.865 125.723 164.702 126.451 164.702C127.394 164.702 128.169 164.931 128.775 165.388C129.391 165.845 129.797 166.48 129.993 167.292H128.621C128.491 166.825 128.234 166.457 127.851 166.186C127.478 165.915 127.011 165.78 126.451 165.78C125.723 165.78 125.135 166.032 124.687 166.536C124.239 167.031 124.015 167.735 124.015 168.65C124.015 169.574 124.239 170.288 124.687 170.792C125.135 171.296 125.723 171.548 126.451 171.548C127.011 171.548 127.478 171.417 127.851 171.156C128.225 170.895 128.481 170.521 128.621 170.036H129.993C129.788 170.82 129.377 171.45 128.761 171.926C128.145 172.393 127.375 172.626 126.451 172.626C125.723 172.626 125.075 172.463 124.505 172.136C123.945 171.809 123.507 171.347 123.189 170.75C122.872 170.153 122.713 169.453 122.713 168.65ZM138.301 164.828L133.681 176.112H132.365L133.877 172.416L130.783 164.828H132.197L134.605 171.044L136.985 164.828H138.301ZM142.838 168.636C142.838 167.852 142.997 167.166 143.314 166.578C143.632 165.981 144.066 165.519 144.616 165.192C145.176 164.865 145.797 164.702 146.478 164.702C147.15 164.702 147.734 164.847 148.228 165.136C148.723 165.425 149.092 165.789 149.334 166.228V164.828H150.622V172.5H149.334V171.072C149.082 171.52 148.704 171.893 148.2 172.192C147.706 172.481 147.127 172.626 146.464 172.626C145.783 172.626 145.167 172.458 144.616 172.122C144.066 171.786 143.632 171.315 143.314 170.708C142.997 170.101 142.838 169.411 142.838 168.636ZM149.334 168.65C149.334 168.071 149.218 167.567 148.984 167.138C148.751 166.709 148.434 166.382 148.032 166.158C147.64 165.925 147.206 165.808 146.73 165.808C146.254 165.808 145.82 165.92 145.428 166.144C145.036 166.368 144.724 166.695 144.49 167.124C144.257 167.553 144.14 168.057 144.14 168.636C144.14 169.224 144.257 169.737 144.49 170.176C144.724 170.605 145.036 170.937 145.428 171.17C145.82 171.394 146.254 171.506 146.73 171.506C147.206 171.506 147.64 171.394 148.032 171.17C148.434 170.937 148.751 170.605 148.984 170.176C149.218 169.737 149.334 169.229 149.334 168.65ZM156.513 164.688C157.447 164.688 158.203 164.973 158.781 165.542C159.36 166.102 159.649 166.914 159.649 167.978V172.5H158.389V168.16C158.389 167.395 158.198 166.811 157.815 166.41C157.433 165.999 156.91 165.794 156.247 165.794C155.575 165.794 155.039 166.004 154.637 166.424C154.245 166.844 154.049 167.455 154.049 168.258V172.5H152.775V164.828H154.049V165.92C154.301 165.528 154.642 165.225 155.071 165.01C155.51 164.795 155.991 164.688 156.513 164.688ZM161.254 168.636C161.254 167.852 161.413 167.166 161.73 166.578C162.048 165.981 162.482 165.519 163.032 165.192C163.592 164.865 164.218 164.702 164.908 164.702C165.506 164.702 166.061 164.842 166.574 165.122C167.088 165.393 167.48 165.752 167.75 166.2V162.14H169.038V172.5H167.75V171.058C167.498 171.515 167.125 171.893 166.63 172.192C166.136 172.481 165.557 172.626 164.894 172.626C164.213 172.626 163.592 172.458 163.032 172.122C162.482 171.786 162.048 171.315 161.73 170.708C161.413 170.101 161.254 169.411 161.254 168.636ZM167.75 168.65C167.75 168.071 167.634 167.567 167.4 167.138C167.167 166.709 166.85 166.382 166.448 166.158C166.056 165.925 165.622 165.808 165.146 165.808C164.67 165.808 164.236 165.92 163.844 166.144C163.452 166.368 163.14 166.695 162.906 167.124C162.673 167.553 162.556 168.057 162.556 168.636C162.556 169.224 162.673 169.737 162.906 170.176C163.14 170.605 163.452 170.937 163.844 171.17C164.236 171.394 164.67 171.506 165.146 171.506C165.622 171.506 166.056 171.394 166.448 171.17C166.85 170.937 167.167 170.605 167.4 170.176C167.634 169.737 167.75 169.229 167.75 168.65ZM175.582 163.582C175.339 163.582 175.134 163.498 174.966 163.33C174.798 163.162 174.714 162.957 174.714 162.714C174.714 162.471 174.798 162.266 174.966 162.098C175.134 161.93 175.339 161.846 175.582 161.846C175.815 161.846 176.011 161.93 176.17 162.098C176.338 162.266 176.422 162.471 176.422 162.714C176.422 162.957 176.338 163.162 176.17 163.33C176.011 163.498 175.815 163.582 175.582 163.582ZM176.198 164.828V172.5H174.924V164.828H176.198ZM182.107 164.688C183.04 164.688 183.796 164.973 184.375 165.542C184.954 166.102 185.243 166.914 185.243 167.978V172.5H183.983V168.16C183.983 167.395 183.792 166.811 183.409 166.41C183.026 165.999 182.504 165.794 181.841 165.794C181.169 165.794 180.632 166.004 180.231 166.424C179.839 166.844 179.643 167.455 179.643 168.258V172.5H178.369V164.828H179.643V165.92C179.895 165.528 180.236 165.225 180.665 165.01C181.104 164.795 181.584 164.688 182.107 164.688ZM191.062 164.688C191.995 164.688 192.751 164.973 193.33 165.542C193.909 166.102 194.198 166.914 194.198 167.978V172.5H192.938V168.16C192.938 167.395 192.747 166.811 192.364 166.41C191.981 165.999 191.459 165.794 190.796 165.794C190.124 165.794 189.587 166.004 189.186 166.424C188.794 166.844 188.598 167.455 188.598 168.258V172.5H187.324V164.828H188.598V165.92C188.85 165.528 189.191 165.225 189.62 165.01C190.059 164.795 190.539 164.688 191.062 164.688ZM199.625 172.626C198.907 172.626 198.253 172.463 197.665 172.136C197.087 171.809 196.629 171.347 196.293 170.75C195.967 170.143 195.803 169.443 195.803 168.65C195.803 167.866 195.971 167.175 196.307 166.578C196.653 165.971 197.119 165.509 197.707 165.192C198.295 164.865 198.953 164.702 199.681 164.702C200.409 164.702 201.067 164.865 201.655 165.192C202.243 165.509 202.705 165.967 203.041 166.564C203.387 167.161 203.559 167.857 203.559 168.65C203.559 169.443 203.382 170.143 203.027 170.75C202.682 171.347 202.211 171.809 201.613 172.136C201.016 172.463 200.353 172.626 199.625 172.626ZM199.625 171.506C200.083 171.506 200.512 171.399 200.913 171.184C201.315 170.969 201.637 170.647 201.879 170.218C202.131 169.789 202.257 169.266 202.257 168.65C202.257 168.034 202.136 167.511 201.893 167.082C201.651 166.653 201.333 166.335 200.941 166.13C200.549 165.915 200.125 165.808 199.667 165.808C199.201 165.808 198.771 165.915 198.379 166.13C197.997 166.335 197.689 166.653 197.455 167.082C197.222 167.511 197.105 168.034 197.105 168.65C197.105 169.275 197.217 169.803 197.441 170.232C197.675 170.661 197.983 170.983 198.365 171.198C198.748 171.403 199.168 171.506 199.625 171.506ZM208.09 171.324L210.47 164.828H211.828L208.818 172.5H207.334L204.324 164.828H205.696L208.09 171.324ZM212.606 168.636C212.606 167.852 212.765 167.166 213.082 166.578C213.399 165.981 213.833 165.519 214.384 165.192C214.944 164.865 215.565 164.702 216.246 164.702C216.918 164.702 217.501 164.847 217.996 165.136C218.491 165.425 218.859 165.789 219.102 166.228V164.828H220.39V172.5H219.102V171.072C218.85 171.52 218.472 171.893 217.968 172.192C217.473 172.481 216.895 172.626 216.232 172.626C215.551 172.626 214.935 172.458 214.384 172.122C213.833 171.786 213.399 171.315 213.082 170.708C212.765 170.101 212.606 169.411 212.606 168.636ZM219.102 168.65C219.102 168.071 218.985 167.567 218.752 167.138C218.519 166.709 218.201 166.382 217.8 166.158C217.408 165.925 216.974 165.808 216.498 165.808C216.022 165.808 215.588 165.92 215.196 166.144C214.804 166.368 214.491 166.695 214.258 167.124C214.025 167.553 213.908 168.057 213.908 168.636C213.908 169.224 214.025 169.737 214.258 170.176C214.491 170.605 214.804 170.937 215.196 171.17C215.588 171.394 216.022 171.506 216.498 171.506C216.974 171.506 217.408 171.394 217.8 171.17C218.201 170.937 218.519 170.605 218.752 170.176C218.985 169.737 219.102 169.229 219.102 168.65ZM224.097 165.878V170.4C224.097 170.773 224.176 171.039 224.335 171.198C224.494 171.347 224.769 171.422 225.161 171.422H226.099V172.5H224.951C224.242 172.5 223.71 172.337 223.355 172.01C223 171.683 222.823 171.147 222.823 170.4V165.878H221.829V164.828H222.823V162.896H224.097V164.828H226.099V165.878H224.097ZM228.3 163.582C228.058 163.582 227.852 163.498 227.684 163.33C227.516 163.162 227.432 162.957 227.432 162.714C227.432 162.471 227.516 162.266 227.684 162.098C227.852 161.93 228.058 161.846 228.3 161.846C228.534 161.846 228.73 161.93 228.888 162.098C229.056 162.266 229.14 162.471 229.14 162.714C229.14 162.957 229.056 163.162 228.888 163.33C228.73 163.498 228.534 163.582 228.3 163.582ZM228.916 164.828V172.5H227.642V164.828H228.916ZM234.434 172.626C233.715 172.626 233.062 172.463 232.474 172.136C231.895 171.809 231.438 171.347 231.102 170.75C230.775 170.143 230.612 169.443 230.612 168.65C230.612 167.866 230.78 167.175 231.116 166.578C231.461 165.971 231.928 165.509 232.516 165.192C233.104 164.865 233.762 164.702 234.49 164.702C235.218 164.702 235.876 164.865 236.464 165.192C237.052 165.509 237.514 165.967 237.85 166.564C238.195 167.161 238.368 167.857 238.368 168.65C238.368 169.443 238.19 170.143 237.836 170.75C237.49 171.347 237.019 171.809 236.422 172.136C235.824 172.463 235.162 172.626 234.434 172.626ZM234.434 171.506C234.891 171.506 235.32 171.399 235.722 171.184C236.123 170.969 236.445 170.647 236.688 170.218C236.94 169.789 237.066 169.266 237.066 168.65C237.066 168.034 236.944 167.511 236.702 167.082C236.459 166.653 236.142 166.335 235.75 166.13C235.358 165.915 234.933 165.808 234.476 165.808C234.009 165.808 233.58 165.915 233.188 166.13C232.805 166.335 232.497 166.653 232.264 167.082C232.03 167.511 231.914 168.034 231.914 168.65C231.914 169.275 232.026 169.803 232.25 170.232C232.483 170.661 232.791 170.983 233.174 171.198C233.556 171.403 233.976 171.506 234.434 171.506ZM243.781 164.688C244.714 164.688 245.47 164.973 246.049 165.542C246.628 166.102 246.917 166.914 246.917 167.978V172.5H245.657V168.16C245.657 167.395 245.466 166.811 245.083 166.41C244.7 165.999 244.178 165.794 243.515 165.794C242.843 165.794 242.306 166.004 241.905 166.424C241.513 166.844 241.317 167.455 241.317 168.258V172.5H240.043V164.828H241.317V165.92C241.569 165.528 241.91 165.225 242.339 165.01C242.778 164.795 243.258 164.688 243.781 164.688Z" fill="black"/>
    </svg>
    