<svg width="51" height="50" viewBox="0 0 51 50" fill="none" xmlns="http://www.w3.org/2000/svg">
    <path d="M35.9166 43.75V39.5833C35.9166 37.3732 35.0387 35.2536 33.4759 33.6908C31.9131 32.128 29.7935 31.25 27.5833 31.25H10.9166C8.70651 31.25 6.58689 32.128 5.02409 33.6908C3.46129 35.2536 2.58331 37.3732 2.58331 39.5833V43.75" stroke="black" stroke-width="3" stroke-linecap="round" stroke-linejoin="round"/>
    <path d="M19.25 22.9167C23.8524 22.9167 27.5834 19.1857 27.5834 14.5833C27.5834 9.98096 23.8524 6.25 19.25 6.25C14.6476 6.25 10.9167 9.98096 10.9167 14.5833C10.9167 19.1857 14.6476 22.9167 19.25 22.9167Z" stroke="#1A56DB" stroke-width="3" stroke-linecap="round" stroke-linejoin="round"/>
    <path d="M48.4167 43.75V39.5833C48.4153 37.7369 47.8008 35.9433 46.6695 34.484C45.5383 33.0247 43.9545 31.9824 42.1667 31.5208" stroke="black" stroke-width="3" stroke-linecap="round" stroke-linejoin="round"/>
    <path d="M33.8333 6.52084C35.6258 6.9798 37.2146 8.0223 38.3492 9.48399C39.4838 10.9457 40.0997 12.7434 40.0997 14.5938C40.0997 16.4441 39.4838 18.2418 38.3492 19.7035C37.2146 21.1652 35.6258 22.2077 33.8333 22.6667" stroke="black" stroke-width="3" stroke-linecap="round" stroke-linejoin="round"/>
    </svg>
    