<svg width="51" height="50" viewBox="0 0 51 50" fill="none" xmlns="http://www.w3.org/2000/svg">
    <path d="M40.0833 22.917H10.9167C8.61548 22.917 6.75 24.7825 6.75 27.0837V41.667C6.75 43.9682 8.61548 45.8337 10.9167 45.8337H40.0833C42.3845 45.8337 44.25 43.9682 44.25 41.667V27.0837C44.25 24.7825 42.3845 22.917 40.0833 22.917Z" stroke="black" stroke-width="3" stroke-linecap="round" stroke-linejoin="round"/>
    <path d="M15.0835 22.917V14.5837C15.0835 11.821 16.181 9.17147 18.1345 7.21796C20.088 5.26446 22.7375 4.16699 25.5002 4.16699C28.2628 4.16699 30.9124 5.26446 32.8659 7.21796C34.8194 9.17147 35.9168 11.821 35.9168 14.5837V22.917" stroke="#1A56DB" stroke-width="3" stroke-linecap="round" stroke-linejoin="round"/>
    </svg>
    