<svg width="51" height="50" viewBox="0 0 51 50" fill="none" xmlns="http://www.w3.org/2000/svg">
    <path d="M10.9165 35.4167H8.83317C7.7281 35.4167 6.66829 34.9777 5.88689 34.1963C5.10549 33.4149 4.6665 32.3551 4.6665 31.25V10.4167C4.6665 9.3116 5.10549 8.25179 5.88689 7.47039C6.66829 6.68899 7.7281 6.25 8.83317 6.25H42.1665C43.2716 6.25 44.3314 6.68899 45.1128 7.47039C45.8942 8.25179 46.3332 9.3116 46.3332 10.4167V31.25C46.3332 32.3551 45.8942 33.4149 45.1128 34.1963C44.3314 34.9777 43.2716 35.4167 42.1665 35.4167H40.0832" stroke="black" stroke-width="3" stroke-linecap="round" stroke-linejoin="round"/>
    <path d="M25.5002 31.25L35.9168 43.75H15.0835L25.5002 31.25Z" stroke="#1A56DB" stroke-width="3" stroke-linecap="round" stroke-linejoin="round"/>
    </svg>
    