<svg width="51" height="51" viewBox="0 0 51 51" fill="none" xmlns="http://www.w3.org/2000/svg">
    <path d="M38 44.25C41.4518 44.25 44.25 41.4518 44.25 38C44.25 34.5482 41.4518 31.75 38 31.75C34.5482 31.75 31.75 34.5482 31.75 38C31.75 41.4518 34.5482 44.25 38 44.25Z" stroke="black" stroke-width="3" stroke-linecap="round" stroke-linejoin="round"/>
    <path d="M13 19.25C16.4518 19.25 19.25 16.4518 19.25 13C19.25 9.54822 16.4518 6.75 13 6.75C9.54822 6.75 6.75 9.54822 6.75 13C6.75 16.4518 9.54822 19.25 13 19.25Z" stroke="#1A56DB" stroke-width="3" stroke-linecap="round" stroke-linejoin="round"/>
    <path d="M13 44.25V19.25C13 24.2228 14.9754 28.9919 18.4917 32.5083C22.0081 36.0246 26.7772 38 31.75 38" stroke="black" stroke-width="1.66667" stroke-linecap="round" stroke-linejoin="round"/>
    </svg>
    