<svg width="51" height="50" viewBox="0 0 51 50" fill="none" xmlns="http://www.w3.org/2000/svg">
    <path d="M6.75 37.5V25C6.75 20.0272 8.72544 15.2581 12.2417 11.7417C15.7581 8.22544 20.5272 6.25 25.5 6.25C30.4728 6.25 35.2419 8.22544 38.7582 11.7417C42.2746 15.2581 44.25 20.0272 44.25 25V37.5" stroke="black" stroke-width="3" stroke-linecap="round" stroke-linejoin="round"/>
    <path d="M44.25 39.5833C44.25 40.6884 43.811 41.7482 43.0296 42.5296C42.2482 43.311 41.1884 43.75 40.0833 43.75H38C36.8949 43.75 35.8351 43.311 35.0537 42.5296C34.2723 41.7482 33.8333 40.6884 33.8333 39.5833V33.3333C33.8333 32.2283 34.2723 31.1685 35.0537 30.3871C35.8351 29.6057 36.8949 29.1667 38 29.1667H44.25V39.5833ZM6.75 39.5833C6.75 40.6884 7.18899 41.7482 7.97039 42.5296C8.75179 43.311 9.8116 43.75 10.9167 43.75H13C14.1051 43.75 15.1649 43.311 15.9463 42.5296C16.7277 41.7482 17.1667 40.6884 17.1667 39.5833V33.3333C17.1667 32.2283 16.7277 31.1685 15.9463 30.3871C15.1649 29.6057 14.1051 29.1667 13 29.1667H6.75V39.5833Z" stroke="#1A56DB" stroke-width="3" stroke-linecap="round" stroke-linejoin="round"/>
    </svg>
    