<svg width="60" height="61" viewBox="0 0 60 61" fill="none" xmlns="http://www.w3.org/2000/svg">
    <rect width="60" height="60" transform="translate(0 0.5)" fill="#FDF2F2"/>
    <path d="M38.3333 13.833H21.6666C17.0642 13.833 13.3333 17.564 13.3333 22.1663V38.833C13.3333 43.4354 17.0642 47.1663 21.6666 47.1663H38.3333C42.9356 47.1663 46.6666 43.4354 46.6666 38.833V22.1663C46.6666 17.564 42.9356 13.833 38.3333 13.833Z" stroke="#D03801" stroke-width="1.66667" stroke-linecap="round" stroke-linejoin="round"/>
    <path d="M36.6667 29.4495C36.8724 30.8366 36.6355 32.2532 35.9897 33.4979C35.3438 34.7425 34.322 35.7519 33.0695 36.3823C31.8169 37.0127 30.3975 37.2322 29.0131 37.0094C27.6286 36.7866 26.3497 36.133 25.3581 35.1415C24.3666 34.1499 23.713 32.871 23.4902 31.4865C23.2674 30.1021 23.4869 28.6827 24.1173 27.4301C24.7477 26.1776 25.7571 25.1558 27.0017 24.5099C28.2464 23.8641 29.663 23.6272 31.0501 23.8329C32.465 24.0427 33.7748 24.702 34.7862 25.7134C35.7976 26.7248 36.4569 28.0347 36.6667 29.4495Z" stroke="#D03801" stroke-width="1.66667" stroke-linecap="round" stroke-linejoin="round"/>
    <path d="M39.1667 21.333H39.1834" stroke="#D03801" stroke-width="1.66667" stroke-linecap="round" stroke-linejoin="round"/>
    </svg>
    