<svg width="51" height="51" viewBox="0 0 51 51" fill="none" xmlns="http://www.w3.org/2000/svg">
    <path d="M38 17.1667C41.4518 17.1667 44.25 14.3684 44.25 10.9167C44.25 7.46488 41.4518 4.66666 38 4.66666C34.5482 4.66666 31.75 7.46488 31.75 10.9167C31.75 14.3684 34.5482 17.1667 38 17.1667Z" stroke="black" stroke-width="3" stroke-linecap="round" stroke-linejoin="round"/>
    <path d="M13 31.75C16.4518 31.75 19.25 28.9518 19.25 25.5C19.25 22.0482 16.4518 19.25 13 19.25C9.54822 19.25 6.75 22.0482 6.75 25.5C6.75 28.9518 9.54822 31.75 13 31.75Z" stroke="#1A56DB" stroke-width="3" stroke-linecap="round" stroke-linejoin="round"/>
    <path d="M38 46.3333C41.4518 46.3333 44.25 43.5351 44.25 40.0833C44.25 36.6316 41.4518 33.8333 38 33.8333C34.5482 33.8333 31.75 36.6316 31.75 40.0833C31.75 43.5351 34.5482 46.3333 38 46.3333Z" stroke="black" stroke-width="3" stroke-linecap="round" stroke-linejoin="round"/>
    <path d="M18.3958 28.6458L32.625 36.9375" stroke="black" stroke-width="3" stroke-linecap="round" stroke-linejoin="round"/>
    <path d="M32.6042 14.0625L18.3958 22.3542" stroke="black" stroke-width="3" stroke-linecap="round" stroke-linejoin="round"/>
    </svg>
    