<svg width="50" height="51" viewBox="0 0 50 51" fill="none" xmlns="http://www.w3.org/2000/svg">
    <path d="M44.1874 33.6042C42.8621 36.7385 40.7891 39.5005 38.1497 41.6486C35.5103 43.7967 32.3849 45.2655 29.0467 45.9267C25.7085 46.5878 22.2592 46.4212 19.0003 45.4413C15.7413 44.4614 12.7721 42.6981 10.3521 40.3056C7.93206 37.913 6.13497 34.9641 5.11793 31.7166C4.10089 28.4691 3.89486 25.0219 4.51786 21.6764C5.14085 18.3308 6.57389 15.1888 8.69171 12.5251C10.8095 9.86136 13.5476 7.75695 16.6666 6.39587" stroke="black" stroke-width="3" stroke-linecap="round" stroke-linejoin="round"/>
    <path d="M45.8333 25.5C45.8333 22.7641 45.2945 20.055 44.2475 17.5274C43.2005 14.9998 41.6659 12.7031 39.7314 10.7686C37.7968 8.83401 35.5002 7.29944 32.9726 6.25247C30.445 5.2055 27.7359 4.66663 25 4.66663V25.5H45.8333Z" stroke="#1A56DB" stroke-width="3" stroke-linecap="round" stroke-linejoin="round"/>
    </svg>
    