<svg width="60" height="61" viewBox="0 0 60 61" fill="none" xmlns="http://www.w3.org/2000/svg">
    <rect width="60" height="60" transform="translate(0 0.5)" fill="#EBF5FF"/>
    <path d="M36.6667 23.833C39.3189 23.833 41.8625 24.8866 43.7378 26.7619C45.6132 28.6373 46.6667 31.1808 46.6667 33.833V45.4997H40.0001V33.833C40.0001 32.949 39.6489 32.1011 39.0238 31.476C38.3986 30.8509 37.5508 30.4997 36.6667 30.4997C35.7827 30.4997 34.9348 30.8509 34.3097 31.476C33.6846 32.1011 33.3334 32.949 33.3334 33.833V45.4997H26.6667V33.833C26.6667 31.1808 27.7203 28.6373 29.5957 26.7619C31.471 24.8866 34.0146 23.833 36.6667 23.833Z" stroke="#233876" stroke-width="1.66667" stroke-linecap="round" stroke-linejoin="round"/>
    <path d="M19.9999 25.5H13.3333V45.5H19.9999V25.5Z" stroke="#233876" stroke-width="1.66667" stroke-linecap="round" stroke-linejoin="round"/>
    <path d="M16.6666 20.4997C18.5075 20.4997 19.9999 19.0073 19.9999 17.1663C19.9999 15.3254 18.5075 13.833 16.6666 13.833C14.8256 13.833 13.3333 15.3254 13.3333 17.1663C13.3333 19.0073 14.8256 20.4997 16.6666 20.4997Z" stroke="#233876" stroke-width="1.66667" stroke-linecap="round" stroke-linejoin="round"/>
    </svg>
    