<svg width="51" height="50" viewBox="0 0 51 50" fill="none" xmlns="http://www.w3.org/2000/svg">
    <path d="M25.4998 45.8337C37.0058 45.8337 46.3332 36.5063 46.3332 25.0003C46.3332 13.4944 37.0058 4.16699 25.4998 4.16699C13.9939 4.16699 4.6665 13.4944 4.6665 25.0003C4.6665 36.5063 13.9939 45.8337 25.4998 45.8337Z" stroke="black" stroke-width="3" stroke-linecap="round" stroke-linejoin="round"/>
    <path d="M25.5 37.5C32.4036 37.5 38 31.9036 38 25C38 18.0964 32.4036 12.5 25.5 12.5C18.5964 12.5 13 18.0964 13 25C13 31.9036 18.5964 37.5 25.5 37.5Z" stroke="#1A56DB" stroke-width="3" stroke-linecap="round" stroke-linejoin="round"/>
    <path d="M25.5002 29.1663C27.8013 29.1663 29.6668 27.3009 29.6668 24.9997C29.6668 22.6985 27.8013 20.833 25.5002 20.833C23.199 20.833 21.3335 22.6985 21.3335 24.9997C21.3335 27.3009 23.199 29.1663 25.5002 29.1663Z" stroke="black" stroke-width="1.66667" stroke-linecap="round" stroke-linejoin="round"/>
    </svg>
    