<svg width="40" height="40" viewBox="0 0 40 40" fill="none" xmlns="http://www.w3.org/2000/svg">
    <path d="M25.0833 8.33335C26.7112 8.65096 28.2073 9.44712 29.3801 10.6199C30.5529 11.7927 31.3491 13.2888 31.6667 14.9167M25.0833 1.66669C28.4655 2.04241 31.6193 3.55698 34.0271 5.9617C36.4348 8.36642 37.9533 11.5184 38.3333 14.9M36.6667 28.2V33.2C36.6686 33.6642 36.5735 34.1236 36.3875 34.5489C36.2016 34.9742 35.9288 35.356 35.5868 35.6698C35.2448 35.9836 34.841 36.2225 34.4012 36.3712C33.9615 36.5199 33.4956 36.5751 33.0333 36.5334C27.9047 35.9761 22.9783 34.2236 18.65 31.4167C14.623 28.8578 11.2089 25.4436 8.65 21.4167C5.8333 17.0687 4.08041 12.1183 3.53333 6.96669C3.49168 6.5058 3.54646 6.04129 3.69417 5.60273C3.84188 5.16417 4.07929 4.76117 4.39128 4.41939C4.70327 4.07761 5.08301 3.80454 5.50632 3.61756C5.92963 3.43058 6.38723 3.33379 6.85 3.33335H11.85C12.6588 3.32539 13.443 3.61182 14.0563 4.13924C14.6696 4.66666 15.0701 5.3991 15.1833 6.20002C15.3944 7.80013 15.7858 9.37123 16.35 10.8834C16.5742 11.4799 16.6228 12.1282 16.4898 12.7515C16.3569 13.3748 16.0481 13.9469 15.6 14.4L13.4833 16.5167C15.8559 20.6893 19.3108 24.1441 23.4833 26.5167L25.6 24.4C26.0531 23.9519 26.6253 23.6431 27.2485 23.5102C27.8718 23.3772 28.5201 23.4258 29.1167 23.65C30.6288 24.2143 32.1999 24.6056 33.8 24.8167C34.6096 24.9309 35.349 25.3387 35.8776 25.9625C36.4061 26.5863 36.6869 27.3826 36.6667 28.2Z" stroke="black" stroke-width="3" stroke-linecap="round" stroke-linejoin="round"/>
    </svg>
    