<svg width="217" height="49" viewBox="0 0 217 49" fill="none" xmlns="http://www.w3.org/2000/svg">
    <path d="M15.1458 24.881C11.997 22.967 12.0146 18.2273 15.1796 16.3361L36.8871 3.36513C39.9753 1.51986 44.0116 3.7604 43.9964 7.66376L43.8944 33.7672C43.8791 37.6715 39.8243 39.8814 36.7513 38.0135L15.1458 24.881Z" stroke="white" stroke-width="4"/>
    <path d="M30.8795 24.1688C34.0501 26.0466 34.0867 30.7862 30.9436 32.7135L9.38601 45.9322C6.31919 47.8127 2.25747 45.6185 2.22802 41.7152L2.0311 15.6123C2.00164 11.7081 6.03085 9.45194 9.12506 11.2845L30.8795 24.1688Z" stroke="white" stroke-width="4"/>
    <path d="M83.941 15.012V21.348H77.173V40.5H69.181V21.348H62.485V15.012H83.941ZM90.1406 18.576C88.7486 18.576 87.6326 18.204 86.7926 17.46C85.9526 16.716 85.5326 15.78 85.5326 14.652C85.5326 13.5 85.9526 12.552 86.7926 11.808C87.6326 11.04 88.7486 10.656 90.1406 10.656C91.5086 10.656 92.6126 11.04 93.4526 11.808C94.2926 12.552 94.7126 13.5 94.7126 14.652C94.7126 15.78 94.2926 16.716 93.4526 17.46C92.6126 18.204 91.5086 18.576 90.1406 18.576ZM94.1006 20.196V40.5H86.1086V20.196H94.1006ZM111.93 20.052C114.258 20.052 116.07 20.832 117.366 22.392C118.686 23.952 119.346 26.064 119.346 28.728V40.5H111.39V29.736C111.39 28.776 111.126 28.02 110.598 27.468C110.094 26.892 109.41 26.604 108.546 26.604C107.658 26.604 106.962 26.892 106.458 27.468C105.954 28.02 105.702 28.776 105.702 29.736V40.5H97.7102V20.196H105.702V23.292C106.326 22.332 107.154 21.552 108.186 20.952C109.242 20.352 110.49 20.052 111.93 20.052ZM148.945 15.012V21.348H142.177V40.5H134.185V21.348H127.489V15.012H148.945ZM170.769 30.168C170.769 30.72 170.733 31.248 170.661 31.752H157.809C157.929 33.504 158.661 34.38 160.005 34.38C160.869 34.38 161.493 33.984 161.877 33.192H170.337C170.049 34.632 169.437 35.928 168.501 37.08C167.589 38.208 166.425 39.108 165.009 39.78C163.617 40.428 162.081 40.752 160.401 40.752C158.385 40.752 156.585 40.332 155.001 39.492C153.441 38.652 152.217 37.452 151.329 35.892C150.465 34.308 150.033 32.46 150.033 30.348C150.033 28.236 150.465 26.4 151.329 24.84C152.217 23.256 153.441 22.044 155.001 21.204C156.585 20.364 158.385 19.944 160.401 19.944C162.417 19.944 164.205 20.364 165.765 21.204C167.349 22.02 168.573 23.196 169.437 24.732C170.325 26.268 170.769 28.08 170.769 30.168ZM162.669 28.26C162.669 27.588 162.453 27.084 162.021 26.748C161.589 26.388 161.049 26.208 160.401 26.208C158.985 26.208 158.157 26.892 157.917 28.26H162.669ZM172.216 30.348C172.216 28.236 172.648 26.4 173.512 24.84C174.4 23.256 175.624 22.044 177.184 21.204C178.768 20.364 180.568 19.944 182.584 19.944C185.224 19.944 187.444 20.688 189.244 22.176C191.068 23.664 192.22 25.728 192.7 28.368H184.24C183.928 27.312 183.316 26.784 182.404 26.784C181.756 26.784 181.24 27.084 180.856 27.684C180.496 28.284 180.316 29.172 180.316 30.348C180.316 31.524 180.496 32.412 180.856 33.012C181.24 33.612 181.756 33.912 182.404 33.912C183.316 33.912 183.928 33.384 184.24 32.328H192.7C192.22 34.968 191.068 37.032 189.244 38.52C187.444 40.008 185.224 40.752 182.584 40.752C180.568 40.752 178.768 40.332 177.184 39.492C175.624 38.652 174.4 37.452 173.512 35.892C172.648 34.308 172.216 32.46 172.216 30.348ZM209.454 20.052C211.782 20.052 213.594 20.832 214.89 22.392C216.21 23.952 216.87 26.064 216.87 28.728V40.5H208.914V29.736C208.914 28.776 208.65 28.02 208.122 27.468C207.618 26.892 206.934 26.604 206.07 26.604C205.182 26.604 204.486 26.892 203.982 27.468C203.478 28.02 203.226 28.776 203.226 29.736V40.5H195.234V13.86H203.226V23.292C203.85 22.332 204.678 21.552 205.71 20.952C206.766 20.352 208.014 20.052 209.454 20.052Z" fill="white"/>
    </svg>    