<svg width="217" height="50" viewBox="0 0 217 50" fill="none" xmlns="http://www.w3.org/2000/svg">
    <path d="M15.1458 25.3029C11.997 23.3889 12.0146 18.6492 15.1796 16.758L36.8871 3.78701C39.9753 1.94174 44.0116 4.18227 43.9964 8.08564L43.8944 34.1891C43.8791 38.0934 39.8243 40.3033 36.7513 38.4354L15.1458 25.3029Z" stroke="url(#paint0_linear_8118_100974)" stroke-width="4"/>
    <path d="M30.8795 24.5907C34.0501 26.4684 34.0867 31.2081 30.9436 33.1354L9.38601 46.3541C6.31919 48.2346 2.25747 46.0404 2.22802 42.1371L2.0311 16.0342C2.00164 12.13 6.03085 9.87382 9.12506 11.7064L30.8795 24.5907Z" stroke="url(#paint1_linear_8118_100974)" stroke-width="4"/>
    <path d="M83.941 12.512V18.848H77.173V38H69.181V18.848H62.485V12.512H83.941ZM90.1406 16.076C88.7486 16.076 87.6326 15.704 86.7926 14.96C85.9526 14.216 85.5326 13.28 85.5326 12.152C85.5326 11 85.9526 10.052 86.7926 9.308C87.6326 8.54 88.7486 8.156 90.1406 8.156C91.5086 8.156 92.6126 8.54 93.4526 9.308C94.2926 10.052 94.7126 11 94.7126 12.152C94.7126 13.28 94.2926 14.216 93.4526 14.96C92.6126 15.704 91.5086 16.076 90.1406 16.076ZM94.1006 17.696V38H86.1086V17.696H94.1006ZM111.93 17.552C114.258 17.552 116.07 18.332 117.366 19.892C118.686 21.452 119.346 23.564 119.346 26.228V38H111.39V27.236C111.39 26.276 111.126 25.52 110.598 24.968C110.094 24.392 109.41 24.104 108.546 24.104C107.658 24.104 106.962 24.392 106.458 24.968C105.954 25.52 105.702 26.276 105.702 27.236V38H97.7102V17.696H105.702V20.792C106.326 19.832 107.154 19.052 108.186 18.452C109.242 17.852 110.49 17.552 111.93 17.552ZM148.945 12.512V18.848H142.177V38H134.185V18.848H127.489V12.512H148.945ZM170.769 27.668C170.769 28.22 170.733 28.748 170.661 29.252H157.809C157.929 31.004 158.661 31.88 160.005 31.88C160.869 31.88 161.493 31.484 161.877 30.692H170.337C170.049 32.132 169.437 33.428 168.501 34.58C167.589 35.708 166.425 36.608 165.009 37.28C163.617 37.928 162.081 38.252 160.401 38.252C158.385 38.252 156.585 37.832 155.001 36.992C153.441 36.152 152.217 34.952 151.329 33.392C150.465 31.808 150.033 29.96 150.033 27.848C150.033 25.736 150.465 23.9 151.329 22.34C152.217 20.756 153.441 19.544 155.001 18.704C156.585 17.864 158.385 17.444 160.401 17.444C162.417 17.444 164.205 17.864 165.765 18.704C167.349 19.52 168.573 20.696 169.437 22.232C170.325 23.768 170.769 25.58 170.769 27.668ZM162.669 25.76C162.669 25.088 162.453 24.584 162.021 24.248C161.589 23.888 161.049 23.708 160.401 23.708C158.985 23.708 158.157 24.392 157.917 25.76H162.669ZM172.216 27.848C172.216 25.736 172.648 23.9 173.512 22.34C174.4 20.756 175.624 19.544 177.184 18.704C178.768 17.864 180.568 17.444 182.584 17.444C185.224 17.444 187.444 18.188 189.244 19.676C191.068 21.164 192.22 23.228 192.7 25.868H184.24C183.928 24.812 183.316 24.284 182.404 24.284C181.756 24.284 181.24 24.584 180.856 25.184C180.496 25.784 180.316 26.672 180.316 27.848C180.316 29.024 180.496 29.912 180.856 30.512C181.24 31.112 181.756 31.412 182.404 31.412C183.316 31.412 183.928 30.884 184.24 29.828H192.7C192.22 32.468 191.068 34.532 189.244 36.02C187.444 37.508 185.224 38.252 182.584 38.252C180.568 38.252 178.768 37.832 177.184 36.992C175.624 36.152 174.4 34.952 173.512 33.392C172.648 31.808 172.216 29.96 172.216 27.848ZM209.454 17.552C211.782 17.552 213.594 18.332 214.89 19.892C216.21 21.452 216.87 23.564 216.87 26.228V38H208.914V27.236C208.914 26.276 208.65 25.52 208.122 24.968C207.618 24.392 206.934 24.104 206.07 24.104C205.182 24.104 204.486 24.392 203.982 24.968C203.478 25.52 203.226 26.276 203.226 27.236V38H195.234V11.36H203.226V20.792C203.85 19.832 204.678 19.052 205.71 18.452C206.766 17.852 208.014 17.552 209.454 17.552Z" fill="black"/>
    <defs>
    <linearGradient id="paint0_linear_8118_100974" x1="4.31236" y1="-8.06169" x2="43.2892" y2="47.2355" gradientUnits="userSpaceOnUse">
    <stop stop-color="#E92A4C"/>
    <stop offset="0.557292" stop-color="#DE710C" stop-opacity="0.944271"/>
    <stop offset="1" stop-color="#8B00BC"/>
    </linearGradient>
    <linearGradient id="paint1_linear_8118_100974" x1="42.0943" y1="57.829" x2="0.197519" y2="8.0174" gradientUnits="userSpaceOnUse">
    <stop offset="0.191494" stop-color="#FC0935"/>
    <stop offset="0.507066" stop-color="#F29845" stop-opacity="0.944271"/>
    <stop offset="1" stop-color="#5A00B5"/>
    </linearGradient>
    </defs>
    </svg>
    